<svg xmlns="http://www.w3.org/2000/svg" version="1.0" viewBox="0 0 1431 1431"><path fill="#FFF" fill-opacity=".1" d="M444.8 681.7c1.8.2 4.5.2 6 0s0-.4-3.3-.4-4.5.2-2.7.4m36.5 0c1.5.2 3.9.2 5.5 0 1.5-.2.2-.4-2.8-.4s-4.3.2-2.7.4m30.5 0c1.7.2 4.7.2 6.5 0 1.7-.2.3-.4-3.3-.4s-5 .2-3.2.4m21.5 0c.9.2 2.5.2 3.5 0 .9-.3.1-.5-1.8-.5s-2.7.2-1.7.5m32 0c1.5.2 3.9.2 5.5 0 1.5-.2.2-.4-2.8-.4s-4.3.2-2.7.4m15.5 0c.7.3 1.6.2 1.9-.1.4-.3-.2-.6-1.3-.5-1.1 0-1.4.3-.6.6m7.5 0c.9.2 2.3.2 3 0 .6-.3-.1-.5-1.8-.5-1.6 0-2.2.2-1.2.5m27 0c1.5.2 3.7.2 5 0 1.2-.2 0-.4-2.8-.4-2.7 0-3.8.2-2.2.4m16.5 0c.7.3 1.6.2 1.9-.1.4-.3-.2-.6-1.3-.5-1.1 0-1.4.3-.6.6m9.5 0c3.1.2 8.3.2 11.5 0 3.1-.2.5-.3-5.8-.3s-8.9.1-5.7.3m60 0c1.5.2 3.9.2 5.5 0 1.5-.2.2-.4-2.8-.4s-4.3.2-2.7.4m37 0c3.2.2 8.1.2 11 0s.3-.3-5.8-.3c-6 0-8.4.1-5.2.3m57.5 0c1.8.2 4.5.2 6 0s0-.4-3.3-.4-4.5.2-2.7.4m55 0c1.7.2 4.7.2 6.5 0 1.7-.2.3-.4-3.3-.4s-5 .2-3.2.4m30.4 0c3.7.2 10 .2 14 0 4-.1 1-.3-6.7-.3s-11 .1-7.3.3m28.6 0c.7.3 1.6.2 1.9-.1.4-.3-.2-.6-1.3-.5-1.1 0-1.4.3-.6.6m8.5 0c2.6.2 6.8.2 9.5 0 2.6-.2.4-.3-4.8-.3s-7.4.1-4.7.3m33.5 0c1.8.2 4.5.2 6 0s0-.4-3.3-.4-4.5.2-2.7.4m33 0c1.7.2 4.7.2 6.5 0 1.7-.2.3-.4-3.3-.4s-5 .2-3.2.4m-408.3 2.2c-.3.5-.1 1.2.5 1.6.5.3 1-.1 1-.9 0-1.8-.6-2.1-1.5-.7m328.7 4.1c0 1.4.2 1.9.5 1.2.2-.6.2-1.8 0-2.5-.3-.6-.5-.1-.5 1.3m-399 2c0 1.4.2 1.9.5 1.2.2-.6.2-1.8 0-2.5-.3-.6-.5-.1-.5 1.3m70.5 4.3c-.3.8-.1 2 .4 2.8.6 1 .9.7.9-1.4 0-2.9-.5-3.5-1.3-1.4m67.7 1.6c-1.7 1.8.4 2.6 6.5 2.6 5.1 0 6.7-.3 6-1.2-.7-.7-.5-1.3.3-1.6.7-.2-1.8-.4-5.5-.3-3.8 0-7 .3-7.3.5m58.6-.5c0 .2 1.1.6 2.5.8 1.3.3 2.2.1 1.9-.3-.5-.9-4.4-1.3-4.4-.5m42.3 3.6c0 2.5.2 3.5.4 2.2.2-1.2.2-3.2 0-4.5-.2-1.2-.4-.2-.4 2.3m143-2.5c-.9 2.4.4 3 3.4 1.5 2.6-1.2 2.7-1.3.8-2.1-2.9-1.1-3.5-1.1-4.2.6m9.4-.8c-1 .9 1.3 3.3 3.2 3.3 1.3 0 1.3-.2.2-.9-.7-.5-1-1.4-.7-2 .8-1.2-1.6-1.6-2.7-.4m25.7.7c-.9 2.2-.1 4.9 1.6 5.4 1.2.4 1.3.2.3-.9-1.4-1.8-.1-4.5 1.7-3.4.8.5 1.1.3.8-.6-.7-2-3.7-2.3-4.4-.5m-400.3 1.3c-.1 1.4.5 2.3 1.4 2.3s1.5-.9 1.5-2.3c0-1.6-.3-1.8-.9-.8-.7 1.1-.9 1.1-1.4 0-.3-.8-.6-.4-.6.8m53.6 6.5c-.2.7-.1 2.2.4 3.3.6 1.6.8 1.4.8-1.3.1-3.3-.4-4.1-1.2-2m-53.4 6.3c-.3.9-.3 1.9.1 2.2.3.4.6.1.6-.6s.5-.9 1-.6c.6.3 1-.1 1-.9 0-2.1-1.9-2.1-2.7-.1m222 15c0 3.3.2 4.5.4 2.7s.2-4.5 0-6-.4 0-.4 3.3m177 0c0 3.3.2 4.5.4 2.7s.2-4.5 0-6-.4 0-.4 3.3m-52.3-1.6c0 .6.5 1.3 1 1.6.6.3 1-.1 1-.9 0-.9-.4-1.6-1-1.6-.5 0-1 .4-1 .9m35.2 3.1c0 1.9.2 2.7.5 1.7.2-.9.2-2.5 0-3.5-.3-.9-.5-.1-.5 1.8m-244 1c0 1.4.2 1.9.5 1.2.2-.6.2-1.8 0-2.5-.3-.6-.5-.1-.5 1.3m-136 2.5c0 1.6.2 2.2.5 1.2.2-.9.2-2.3 0-3-.3-.6-.5.1-.5 1.8m9.6 4.2c3.9.2 10.5.2 14.5 0 3.9-.1.7-.3-7.3-.3s-11.2.2-7.2.3m29.5 0c.9.2 2.3.2 3 0 .6-.3-.1-.5-1.8-.5-1.6 0-2.2.2-1.2.5m20.5 0c.7.3 1.6.2 1.9-.1.4-.3-.2-.6-1.3-.5-1.1 0-1.4.3-.6.6m64 0c1.8.2 4.5.2 6 0s0-.4-3.3-.4-4.5.2-2.7.4m87 0c.6.2 1.8.2 2.5 0 .6-.3.1-.5-1.3-.5s-1.9.2-1.2.5m31 0c.7.3 1.6.2 1.9-.1.4-.3-.2-.6-1.3-.5-1.1 0-1.4.3-.6.6m111 0c.7.3 1.6.2 1.9-.1.4-.3-.2-.6-1.3-.5-1.1 0-1.4.3-.6.6m15 0c1.8.2 4.5.2 6 0s0-.4-3.3-.4-4.5.2-2.7.4m20 0c1.2.2 3 .2 4 0 .9-.3-.1-.5-2.3-.4-2.2 0-3 .2-1.7.4m56 0c.6.2 1.8.2 2.5 0 .6-.3.1-.5-1.3-.5s-1.9.2-1.2.5"/><path fill="#FFF" fill-opacity=".2" d="M583.8 681.7c.6.2 1.8.2 2.5 0 .6-.3.1-.5-1.3-.5s-1.9.2-1.2.5m-6.5 7.8c0 2.2.2 3 .4 1.7.2-1.2.2-3 0-4-.3-.9-.5.1-.4 2.3m71 6.2c.9.2 2.5.2 3.5 0 .9-.3.1-.5-1.8-.5s-2.7.2-1.7.5m244.2.2c1.7.7 1.8.9.2 1.7-1.2.7-.7.9 2.3.9 2.7 0 3.6-.3 2.9-1.1-.5-.6-.6-1.4-.2-1.7.3-.4-1.1-.7-3.3-.6-2.9 0-3.4.2-1.9.8m29.5 1.5c0 3.6 1 5.6 2.8 5.6 1.3 0 1.3-.2-.3-1.3-1.2-1-1.6-2.2-1.3-4 .3-1.5.1-2.7-.3-2.7-.5 0-.9 1.1-.9 2.4m-273.2 1.3c1.2.2 3.2.2 4.5 0 1.2-.2.2-.4-2.3-.4s-3.5.2-2.2.4M523.5 701c.3.5 1 1 1.6 1 .5 0 .9-.5.9-1 0-.6-.7-1-1.6-1-.8 0-1.2.4-.9 1m.2 6.7c-1.2 1.2-.7 2.2.8 1.7.8-.4 1.5-1 1.5-1.5 0-1.1-1.4-1.2-2.3-.2"/><path fill="#BFBFBF" fill-opacity=".1" d="M497.6 693.7c4.2 6.5 8.2 12.5 9 13.3 1.2 1.2 1.4 1.2 1.4-.3 0-.9-.5-1.7-1-1.7-.6 0-4.4-5.2-8.5-11.5s-7.7-11.5-7.9-11.5c-.3 0 2.9 5.3 7 11.7m24.4-4.4.5 7.2.3-6.4c.2-3.5-.1-6.8-.5-7.2s-.6 2.4-.3 6.4m4.5-6.2c-.4.6-.5 1.2-.2 1.5.2.3.7-.2 1-1.1.7-1.7.1-2-.8-.4m48 .9c1 1.1 2 2 2.2 2s-.1-.9-.7-2-1.6-2-2.2-2-.3.9.7 2m119.5-1c-.9.6-1 1-.3 1 .6 0 1.5-.5 1.8-1 .8-1.2.4-1.2-1.5 0m63.7.1c.7.7 1.5 1 1.8.7s-.2-.9-1.2-1.2c-1.4-.6-1.5-.5-.6.5m177 0c.7.7 1.5 1 1.8.7s-.2-.9-1.2-1.2c-1.4-.6-1.5-.5-.6.5M476.3 688c0 2.5.2 3.5.4 2.2.2-1.2.2-3.2 0-4.5-.2-1.2-.4-.2-.4 2.3m84.1 14.5c0 10.4.2 14.6.3 9.2.2-5.4.2-13.9 0-19-.1-5.1-.3-.7-.3 9.8m49.8-7.6c-.2 10.4-.3 11.2-1.9 10-1.5-1.3-1.5-1.2-.2.8 2.3 3.8 3 1.1 2.6-10.8l-.3-11.4zm119.8-.4c0 5.8-.3 10.5-.8 10.5-.4 0-.7 2.7-.7 6s.3 6 .7 6 .8 3.5 1 7.7c.2 4.3.4-3.1.5-16.5.1-13.3 0-24.2-.3-24.2-.2 0-.4 4.7-.4 10.5m33-8c1.3 1.4 2.6 2.5 2.8 2.5.3 0-.5-1.1-1.8-2.5s-2.6-2.5-2.8-2.5c-.3 0 .5 1.1 1.8 2.5m19.3.1-2.8 2.5 3.3-2.2c1.7-1.3 3.2-2.4 3.2-2.6 0-.8-1.1-.1-3.7 2.3m122 1.4c0 2.5.2 3.5.4 2.2.2-1.2.2-3.2 0-4.5-.2-1.2-.4-.2-.4 2.3m2.7-3.3c-.5 15.1-.3 46.8.2 47.6.5.7.8-9.9.7-23.6 0-13.6-.3-24.7-.5-24.7s-.4.3-.4.7m33.6 2.3c1.2 1.4 2.6 3.8 3.2 5.5.9 2.6 1.1 2.7 1.1.7.1-1.3-1.3-3.6-3.1-5.5-1.8-1.8-2.3-2.1-1.2-.7m-103.1-1c-.3.6.1.7.9.4 1.8-.7 2.1-1.4.7-1.4-.6 0-1.3.4-1.6 1m32.3 2.1c.2 1.6 1 2.9 1.8 2.9 2 0 1.7-3.8-.4-4.9-1.6-.9-1.8-.6-1.4 2m-182.9-.4c-1.3 1.6-1.2 1.7.4.4.9-.7 1.7-1.5 1.7-1.7 0-.8-.8-.3-2.1 1.3m260.1-1.1c0 .5 1.2 2.2 2.6 3.9l2.6 3-2.3-3.5c-2.9-4.5-2.9-4.5-2.9-3.4m-518.1 2.1c-1.3 1.6-1.2 1.7.4.4s2.1-2.1 1.3-2.1c-.2 0-1 .8-1.7 1.7m337.7 3.8c.8 3.7 1.4 4.5 1.4 1.9 0-1-.5-2.6-1-3.4-.8-1.1-.9-.7-.4 1.5m9.8-.3-1.9 2.3 2.3-1.9c2.1-1.8 2.7-2.6 1.9-2.6-.2 0-1.2 1-2.3 2.2m54.5-.5c-1.3 1.6-1.2 1.7.4.4.9-.7 1.7-1.5 1.7-1.7 0-.8-.8-.3-2.1 1.3m-255.3 2.5c-.7 2.7-.8 15.3-.1 14.6.5-.4 1.4-16.8 1-16.8-.2 0-.5 1-.9 2.2m53.7 1.3c0 2.2.2 3 .4 1.7.2-1.2.2-3 0-4-.3-.9-.5.1-.4 2.3m239.2-2.4c-.4.6-.5 1.2-.2 1.5.2.3.7-.2 1-1.1.7-1.7.1-2-.8-.4m-121.7 1.6c.6.2 1.8.2 2.5 0 .6-.3.1-.5-1.3-.5s-1.9.2-1.2.5m206.2 1.2c.5 1.1 1.5 2.3 2.1 2.7.6.3.3-.5-.6-2-2-3-3-3.5-1.5-.7m-507.7-.1c-.8.5.1.8 2.2.8s3-.3 2.2-.8c-.6-.4-1.6-.8-2.2-.8-.5 0-1.6.4-2.2.8m253.7 1.4c-1.9 1.3-3.5 2.9-3.8 3.6-.2.7.7.3 2-1s3.3-2.8 4.4-3.5c1-.6 1.6-1.2 1.3-1.2-.3-.1-2.1.9-3.9 2.1m-222.8 1.3c0 1.6.2 2.2.5 1.2.2-.9.2-2.3 0-3-.3-.6-.5.1-.5 1.8m231.9-2.1c.2.2 1.5.9 2.9 1.5 2.4 1.1 2.4 1.1.6-.3-1.6-1.3-4.9-2.4-3.5-1.2m42.9.1c0 .5.5 1.7 1 2.5s1 1 1 .5c0-.6-.5-1.7-1-2.5s-1-1.1-1-.5m102.3.2c.9.2 2.5.2 3.5 0 .9-.3.1-.5-1.8-.5s-2.7.2-1.7.5m-401.3.7c0 .2.7.7 1.6 1 .8.3 1.2.2.9-.4-.6-1-2.5-1.4-2.5-.6m126.3 3.6c0 2.5.2 3.5.4 2.2.2-1.2.2-3.2 0-4.5-.2-1.2-.4-.2-.4 2.3m211.7-1.5c-1.3 1.4-2.2 2.7-1.9 2.9.2.2 1.4-1 2.7-2.5 2.9-3.6 2.4-3.8-.8-.4m13.1-2.2c.2.1 1.3.9 2.4 1.7 1.9 1.4 1.9 1.4.6-.3-.7-.9-1.8-1.7-2.4-1.7q-.9 0-.6.3m125 1.4c-.1 1.2-.7 2.4-1.3 2.6q-1.5.6 0 .6c1.5.1 2.6-2.3 1.9-4.1-.3-.7-.6-.3-.6.9m-102.9 1.9c-.7.8-1 1.9-.6 2.6.5.7 1 .3 1.6-1.2 1-2.8.7-3.3-1-1.4M473.5 708c0 4.6.2 7.5.4 6.4.4-1.8.4-1.8 1.2.1.5 1.3.8-.6.8-5.3.1-4.2-.3-7.1-.8-6.7-.5.3-1.1-.2-1.3-1.2-.2-.9-.3 2.1-.3 6.7m293.6-6.8c0 .9-.4 2.5-.7 3.5-.5 1.7-.5 1.7.6 0 .6-1 .9-2.5.7-3.5-.4-1.5-.5-1.5-.6 0M660.3 705c0 2.5.2 3.5.4 2.2.2-1.2.2-3.2 0-4.5-.2-1.2-.4-.2-.4 2.3m243 .5c0 2.7.2 3.8.4 2.2.2-1.5.2-3.7 0-5-.2-1.2-.4 0-.4 2.8m40.8-3.8c-.1.6-.4 2-.7 3-.5 1.7-.5 1.7.6 0 .6-1 .9-2.3.6-3-.3-.9-.5-.9-.5 0m-235.3 1c1.8.2 4.5.2 6 0s0-.4-3.3-.4-4.5.2-2.7.4m62.3 5.4c0 3 .4 6.3.8 7.4.5 1.1.6-1 .3-5-.6-8.5-1.2-9.8-1.1-2.4m-334.8-.1c0 2.5.2 3.5.4 2.2.2-1.2.2-3.2 0-4.5-.2-1.2-.4-.2-.4 2.3m256.9 0c0 1.4.2 1.9.5 1.2.2-.6.2-1.8 0-2.5-.3-.6-.5-.1-.5 1.3m146.9-.4c0 1.1.3 1.4.6.6.3-.7.2-1.6-.1-1.9-.3-.4-.6.2-.5 1.3m-261.7 11.9c0 7.1.1 9.9.3 6.2s.2-9.6 0-13-.3-.4-.3 6.8m-87.8-10c-.3.9-.6 2.6-.5 3.8.1 1.4.4.9.9-1.3.9-3.7.7-5.2-.4-2.5m102.9-.5c.3.5.8 1 1.1 1 .2 0 .4-.5.4-1 0-.6-.5-1-1.1-1-.5 0-.7.4-.4 1m108.7 3c0 1.4.2 1.9.5 1.2.2-.6.2-1.8 0-2.5-.3-.6-.5-.1-.5 1.3m261 9.2c-.1 5.9.1 10.9.6 11.1.4.3.6-2.9.4-7.1-.4-13.5-.9-15-1-4M522 722.7c-.3 6.2-.1 10.9.3 10.4.4-.4.6-5.5.5-11.2l-.3-10.4zm121.6-9.9c-.2.4 1.4.6 3.7.4 6.8-.5 7.6-1 2-1.1-2.8 0-5.4.2-5.7.7m243.4.7c0 .8.2 1.5.4 1.5s.6-.7 1-1.5c.3-.8.1-1.5-.4-1.5-.6 0-1 .7-1 1.5m-466 0c0 .5.5 1.7 1 2.5s1 1 1 .5c0-.6-.5-1.7-1-2.5s-1-1.1-1-.5m403 .1c0 .3.7 1.2 1.5 2 1.6 1.7 1.8 1.4.9-1-.6-1.5-2.4-2.3-2.4-1M497 718c.6 1.1 1.3 2 1.6 2 .2 0 0-.9-.6-2s-1.3-2-1.6-2c-.2 0 0 .9.6 2m266.5 1c1 1.1 2 2 2.3 2s-.3-.9-1.3-2-2-2-2.3-2 .3.9 1.3 2m177 0c1 1.1 2 2 2.3 2s-.3-.9-1.3-2-2-2-2.3-2 .3.9 1.3 2m-365.3 5.2c-.1 3.1-.5 6.5-.8 7.5-.5 1.7-.5 1.7.6 0 .6-.9.9-4.2.7-7.5l-.3-5.7zm125.5-4.1c.7.7 1.5 1 1.8.7s-.2-.9-1.2-1.2c-1.4-.6-1.5-.5-.6.5m45.8.9c1 1.1 2 2 2.3 2s-.3-.9-1.3-2-2-2-2.3-2 .3.9 1.3 2m179.4 2.7c2.4 2.9 4.6 5.3 4.8 5.3.7 0-5.4-7.5-7.4-9.1-1-.8.2 1 2.6 3.8m-478.6-3c.9.2 2.3.2 3 0 .6-.3-.1-.5-1.8-.5-1.6 0-2.2.2-1.2.5m181.8.9c0 1.1.3 1.4.6.6.3-.7.2-1.6-.1-1.9-.3-.4-.6.2-.5 1.3m168.2-.9c.9.2 2.3.2 3 0 .6-.3-.1-.5-1.8-.5-1.6 0-2.2.2-1.2.5m57.5 0c.7.3 1.6.2 1.9-.1.4-.3-.2-.6-1.3-.5-1.1 0-1.4.3-.6.6m13.8 1.6c.3 1 .9 1.5 1.2 1.2s0-1.1-.7-1.8c-1-.9-1.1-.8-.5.6m-311 1.6c1 2.2 1 5.1 0 8.1-.8 2.1-.7 2.3.6 1.3 1-.8 1.8-.9 2.6-.3.9.7.9.7.2-.2-.5-.7-1-3.3-1-5.8 0-3.5-.4-4.7-1.5-4.7s-1.4.6-.9 1.6m210.9 1.1c4.7 5.5 4.8 5.6 3.7 3.5-.6-1.1-2.3-3.1-3.9-4.5l-2.8-2.5zm103.5-.9c0 1.1-.3 1.8-.7 1.6-.5-.3-.9.5-.9 1.7-.1 1.3.4 2.3 1 2.3.7 0 1.3-1.7 1.3-3.9.1-2.1 0-3.8-.3-3.8-.2 0-.4.9-.4 2.1m74.2 1.4c1.5 1.6 3.1 4.1 3.7 5.5.7 1.8 1 2 1 .7.1-1-1.6-3.5-3.6-5.5-2.1-2.1-2.6-2.4-1.1-.7m-42-.5c0 1.4.2 1.9.5 1.2.2-.6.2-1.8 0-2.5-.3-.6-.5-.1-.5 1.3m-154.2.4c0 .2.8 1 1.8 1.7 1.5 1.3 1.6 1.2.3-.4s-2.1-2.1-2.1-1.3m-274.9 3.2c0 1.1.3 1.4.6.6.3-.7.2-1.6-.1-1.9-.3-.4-.6.2-.5 1.3m118.1 1.4c0 1.4.2 1.9.5 1.2.2-.6.2-1.8 0-2.5-.3-.6-.5-.1-.5 1.3m36 0c0 1.4.2 1.9.5 1.2.2-.6.2-1.8 0-2.5-.3-.6-.5-.1-.5 1.3m275 0c0 1.4.2 1.9.5 1.2.2-.6.2-1.8 0-2.5-.3-.6-.5-.1-.5 1.3m-149.7 1c1 1.1 2 2 2.3 2s-.3-.9-1.3-2-2-2-2.3-2 .3.9 1.3 2m-264.4.6c0 1.1.3 1.4.6.6.3-.7.2-1.6-.1-1.9-.3-.4-.6.2-.5 1.3m440.9-1.2c0 .2.8 1 1.8 1.7 1.5 1.3 1.6 1.2.3-.4s-2.1-2.1-2.1-1.3M526 733c0 .5.5 1 1.1 1 .5 0 .7-.5.4-1-.3-.6-.8-1-1.1-1-.2 0-.4.4-.4 1m280.5 0c-.3.6.1.7.9.4 1.8-.7 2.1-1.4.7-1.4-.6 0-1.3.4-1.6 1"/><path fill="gray" fill-opacity=".1" d="M538.8 683.2c.8.8 1.3 6.7 1.4 18.7l.2 17.6.4-16.5c.3-17.3-.1-21-2-21-.9 0-.9.3 0 1.2m119.8-.5c.6.4 1.4 1.5 1.7 2.3.5 1.1.6.9.4-.4-.1-1.1-.9-2.1-1.7-2.3-1-.3-1.1-.2-.4.4m214.4.8c-.6.8-1 1.9-.8 2.4.1.6.8-.1 1.5-1.4 1.3-2.8 1.1-3.1-.7-1m74.3 0c-.3.9-.3 1.8-.1 2.1.3.3.8-.4 1.1-1.6.6-2.3-.1-2.7-1-.5m-80.3.9c0 .2.8 1 1.8 1.7 1.5 1.3 1.6 1.2.3-.4s-2.1-2.1-2.1-1.3M526.3 691c0 3.6.2 5 .4 3.2.2-1.7.2-4.7 0-6.5-.2-1.7-.4-.3-.4 3.3m-95.4-3.3c-1.3 1.6-1.2 1.7.4.4.9-.7 1.7-1.5 1.7-1.7 0-.8-.8-.3-2.1 1.3m385.1 1.8c1.9 1.9 3.6 3.5 3.9 3.5s-1-1.6-2.9-3.5-3.6-3.5-3.9-3.5 1 1.6 2.9 3.5m-349.5.5c1 1.1 2 2 2.3 2s-.3-.9-1.3-2-2-2-2.3-2 .3.9 1.3 2m405.9 16.5c0 8.8.2 12.3.3 7.7.2-4.6.2-11.8 0-16-.1-4.2-.3-.5-.3 8.3m-400.7-8.4c.4 1.3.8 1.8 1.1 1 .2-.7-.1-1.8-.6-2.3-.8-.8-.9-.4-.5 1.3m391.1-.4c.7.3 1.6.2 1.9-.1.4-.3-.2-.6-1.3-.5-1.1 0-1.4.3-.6.6m-355.5 3.8c0 2.2.2 3 .4 1.7.2-1.2.2-3 0-4-.3-.9-.5.1-.4 2.3M717 699c-.9.6-1 1-.3 1 .6 0 1.5-.5 1.8-1 .8-1.2.4-1.2-1.5 0m-87.9 1.6c0 1.1.3 1.4.6.6.3-.7.2-1.6-.1-1.9-.3-.4-.6.2-.5 1.3m328.9 2.1c0 .6.8 1.7 1.8 2.4 1.6 1.3 1.6 1.3.2-.6-.8-1.1-1.6-2.2-1.7-2.4q-.3-.3-.3.6m-536.9 1.9c0 1.1.3 1.4.6.6.3-.7.2-1.6-.1-1.9-.3-.4-.6.2-.5 1.3m257.2 3.4c0 3 .2 4.3.4 2.7.2-1.5.2-3.9 0-5.5-.2-1.5-.4-.2-.4 2.8m41-4.3c1.5.2 3.7.2 5 0 1.2-.2 0-.4-2.8-.4-2.7 0-3.8.2-2.2.4m67.8.9c0 1.1.3 1.4.6.6.3-.7.2-1.6-.1-1.9-.3-.4-.6.2-.5 1.3m22.2 3.4c0 2.5.2 3.5.4 2.2.2-1.2.2-3.2 0-4.5-.2-1.2-.4-.2-.4 2.3m170.7-1c-1.2 1.6-1.9 3-1.6 3 .2 0 1.4-1.4 2.6-3 1.2-1.7 1.9-3 1.6-3-.2 0-1.4 1.3-2.6 3m-350.8 2c0 1.4.2 1.9.5 1.2.2-.6.2-1.8 0-2.5-.3-.6-.5-.1-.5 1.3m-35.9 8c0 4.7.2 6.6.4 4.2.2-2.3.2-6.1 0-8.5-.2-2.3-.4-.4-.4 4.3m307.9-6.4c-.7.8-.8 1.4-.3 1.4 1 0 2.5-1.9 2-2.5-.2-.1-1 .3-1.7 1.1m-480.1 1c0 1.1.3 1.4.6.6.3-.7.2-1.6-.1-1.9-.3-.4-.6.2-.5 1.3m366.1.4c0 1.4.2 1.9.5 1.2.2-.6.2-1.8 0-2.5-.3-.6-.5-.1-.5 1.3m-260.8 7.5c0 4.9.1 7.1.3 4.8s.2-6.4 0-9-.3-.8-.3 4.2m-89.8-6.2c.3 1 .9 1.5 1.2 1.2s0-1.1-.7-1.8c-1-.9-1.1-.8-.5.6m192.7 3.2c0 2.2.2 3 .4 1.7.2-1.2.2-3 0-4-.3-.9-.5.1-.4 2.3m13.9.5c0 1.9.2 2.7.5 1.7.2-.9.2-2.5 0-3.5-.3-.9-.5-.1-.5 1.8m201.5.1c1.2 1.2 2.4 2.1 2.7 1.8.2-.2-.8-1.3-2.2-2.3l-2.7-1.9zm-55.7-.7c0 .2.8 1 1.8 1.7 1.5 1.3 1.6 1.2.3-.4s-2.1-2.1-2.1-1.3m30 6.8c-1.5 2.1-1.7 2.8-.6 1.9 1.6-1.3 4.1-5.1 3.3-5.1-.2 0-1.4 1.5-2.7 3.2m-272.2-1.5c1.7.2 4.7.2 6.5 0 1.7-.2.3-.4-3.3-.4s-5 .2-3.2.4m100.5 0c.9.2 2.3.2 3 0 .6-.3-.1-.5-1.8-.5-1.6 0-2.2.2-1.2.5m7.7-.3c0 .2 1.1.6 2.5.8 1.3.3 2.2.1 1.9-.3-.5-.9-4.4-1.3-4.4-.5m234.8.3c.6.2 1.8.2 2.5 0 .6-.3.1-.5-1.3-.5s-1.9.2-1.2.5m9 0c.6.2 1.8.2 2.5 0 .6-.3.1-.5-1.3-.5s-1.9.2-1.2.5M604 724c.6 1.1 1.3 2 1.6 2 .2 0 0-.9-.6-2s-1.3-2-1.6-2c-.2 0 0 .9.6 2m25.2 1.5c0 1.6.2 2.2.5 1.2.2-.9.2-2.3 0-3-.3-.6-.5.1-.5 1.8m-163.3 1.2-2.4 2.8 2.8-2.4c2.5-2.3 3.2-3.1 2.4-3.1-.2 0-1.4 1.2-2.8 2.7m255.5.5-2.9 3.3 3.3-2.9c3-2.8 3.7-3.6 2.9-3.6-.2 0-1.6 1.5-3.3 3.2m55.6-2.9c0 .2 1.5 1.6 3.3 3.3l3.2 2.9-2.9-3.3c-2.8-3-3.6-3.7-3.6-2.9m-350 1.1c0 .2.8 1 1.8 1.7 1.5 1.3 1.6 1.2.3-.4s-2.1-2.1-2.1-1.3m386.9 3.3c-1.3 1.6-1.2 1.7.4.4.9-.7 1.7-1.5 1.7-1.7 0-.8-.8-.3-2.1 1.3m53.7 1.8c-1.1.8-1.5 1.5-.9 1.5s1.6-.7 2.3-1.5c1.6-1.9 1.1-1.9-1.4 0m-259 .9c.3.8 1.3 1.7 2.2 2.1 1.3.5 1.3.2-.3-1.5-2.1-2.4-2.6-2.5-1.9-.6M716 731c-.9.6-1 1-.3 1 .6 0 1.5-.5 1.8-1 .8-1.2.4-1.2-1.5 0m68.7.1c.7.7 1.5 1 1.8.7s-.2-.9-1.2-1.2c-1.4-.6-1.5-.5-.6.5m55 0c.7.7 1.5 1 1.8.7s-.2-.9-1.2-1.2c-1.4-.6-1.5-.5-.6.5m32.3-.2c0 1 2.9 3.6 3.4 3 .1-.2-.6-1.2-1.6-2.2-1-.9-1.8-1.3-1.8-.8m-212.8 1.7c-.7.8-.8 1.4-.3 1.4 1 0 2.5-1.9 2-2.5-.2-.1-1 .3-1.7 1.1M454 733c-2.3.7-2.3.8-.3.9 1.2.1 2.5-.4 2.8-.9.3-.6.5-1 .3-.9s-1.4.5-2.8.9m125.7.1c.7.7 1.5 1 1.8.7s-.2-.9-1.2-1.2c-1.4-.6-1.5-.5-.6.5m11.3-.1c-.9.6-1 1-.3 1 .6 0 1.5-.5 1.8-1 .8-1.2.4-1.2-1.5 0m311 0c-.9.6-1 1-.3 1 .6 0 1.5-.5 1.8-1 .8-1.2.4-1.2-1.5 0m-461.2.7c.7.3 1.6.2 1.9-.1.4-.3-.2-.6-1.3-.5-1.1 0-1.4.3-.6.6m256 0c.6.2 1.8.2 2.5 0 .6-.3.1-.5-1.3-.5s-1.9.2-1.2.5m13 0c.7.3 1.6.2 1.9-.1.4-.3-.2-.6-1.3-.5-1.1 0-1.4.3-.6.6m81 0c.6.2 1.8.2 2.5 0 .6-.3.1-.5-1.3-.5s-1.9.2-1.2.5m12 0c.6.2 1.8.2 2.5 0 .6-.3.1-.5-1.3-.5s-1.9.2-1.2.5m43 0c.6.2 1.8.2 2.5 0 .6-.3.1-.5-1.3-.5s-1.9.2-1.2.5m14 0c.6.2 1.8.2 2.5 0 .6-.3.1-.5-1.3-.5s-1.9.2-1.2.5"/><path fill="gray" fill-opacity=".2" d="M441.8 682.7c.7.3 1.6.2 1.9-.1.4-.3-.2-.6-1.3-.5-1.1 0-1.4.3-.6.6m10 0c.7.3 1.6.2 1.9-.1.4-.3-.2-.6-1.3-.5-1.1 0-1.4.3-.6.6m119.2-.3c0 .2.7.7 1.6 1 .8.3 1.2.2.9-.4-.6-1-2.5-1.4-2.5-.6m127.8.3c.7.3 1.6.2 1.9-.1.4-.3-.2-.6-1.3-.5-1.1 0-1.4.3-.6.6m9 0c.7.3 1.6.2 1.9-.1.4-.3-.2-.6-1.3-.5-1.1 0-1.4.3-.6.6m45 0c.7.3 1.6.2 1.9-.1.4-.3-.2-.6-1.3-.5-1.1 0-1.4.3-.6.6m40 0c.7.3 1.6.2 1.9-.1.4-.3-.2-.6-1.3-.5-1.1 0-1.4.3-.6.6m10 0c.7.3 1.6.2 1.9-.1.4-.3-.2-.6-1.3-.5-1.1 0-1.4.3-.6.6m45 0c.7.3 1.6.2 1.9-.1.4-.3-.2-.6-1.3-.5-1.1 0-1.4.3-.6.6m11 0c.7.3 1.6.2 1.9-.1.4-.3-.2-.6-1.3-.5-1.1 0-1.4.3-.6.6m72 0c.7.3 1.6.2 1.9-.1.4-.3-.2-.6-1.3-.5-1.1 0-1.4.3-.6.6m49.1 1c-1.3 1.7-1.3 1.7.6.3 1.1-.8 2.2-1.6 2.4-1.7q.3-.3-.6-.3c-.6 0-1.7.8-2.4 1.7m11.9-1c.7.3 1.6.2 1.9-.1.4-.3-.2-.6-1.3-.5-1.1 0-1.4.3-.6.6M435.5 685c-.3.6.1.7.9.4 1.8-.7 2.1-1.4.7-1.4-.6 0-1.3.4-1.6 1m295.6.6c0 1.1.3 1.4.6.6.3-.7.2-1.6-.1-1.9-.3-.4-.6.2-.5 1.3m76.9-1.2c0 .2.7.7 1.6 1 .8.3 1.2.2.9-.4-.6-1-2.5-1.4-2.5-.6m57.1-.1c.2.1 1.5 1.1 2.9 2.2l2.5 2-1.9-2.3c-1.1-1.2-2.4-2.2-2.9-2.2q-.9 0-.6.3M761 685.4c0 .2.8 1 1.8 1.7 1.5 1.3 1.6 1.2.3-.4s-2.1-2.1-2.1-1.3m179.1 2.2c1.3 1.7 2.6 3 2.8 2.7.3-.2-.8-1.6-2.4-3.1l-2.8-2.7zm-279.9.4c0 1.4.2 1.9.5 1.2.2-.6.2-1.8 0-2.5-.3-.6-.5-.1-.5 1.3m287.8-1.1c0 .6.4 1.3 1 1.6s.7-.1.4-.9c-.7-1.8-1.4-2.1-1.4-.7m-318.9 1.7c0 1.1.3 1.4.6.6.3-.7.2-1.6-.1-1.9-.3-.4-.6.2-.5 1.3m56.3 1.6-2.9 3.3 3.3-2.9c3-2.8 3.7-3.6 2.9-3.6-.2 0-1.6 1.5-3.3 3.2m147 1-2.9 3.3 3.3-2.9c3-2.8 3.7-3.6 2.9-3.6-.2 0-1.6 1.5-3.3 3.2m-337.8-.9c.3 1 .9 1.5 1.2 1.2s0-1.1-.7-1.8c-1-.9-1.1-.8-.5.6m26.6 1.2c0 1.6.2 2.2.5 1.2.2-.9.2-2.3 0-3-.3-.6-.5.1-.5 1.8m347.5-.6c-.4 1.7-.3 2.1.5 1.3.5-.5.8-1.6.6-2.3-.3-.8-.7-.3-1.1 1m-402.7-.5c0 .2.8 1 1.8 1.7 1.5 1.3 1.6 1.2.3-.4s-2.1-2.1-2.1-1.3m132 1.6c.6 1.1 1.3 2 1.6 2 .2 0 0-.9-.6-2s-1.3-2-1.6-2c-.2 0 0 .9.6 2m179.4.2-1.9 2.3 2.3-1.9c2.1-1.8 2.7-2.6 1.9-2.6-.2 0-1.2 1-2.3 2.2m123.9.4c-1.2 1.3-1.8 2.4-1.3 2.4 1.1 0 4-2.9 4-4.1s-.1-1.1-2.7 1.7m51.7 1.9c1.7 2.5 3.3 4.5 3.6 4.5s-.9-2-2.6-4.5-3.3-4.5-3.6-4.5.9 2 2.6 4.5m-526.7-1.3c-1.5 2-2.5 3.8-2 3.8.3 0 1.2-1.1 2.1-2.5 1.7-2.6 1.6-3.5-.1-1.3m446.9 1.8c0 1.9.2 2.7.5 1.7.2-.9.2-2.5 0-3.5-.3-.9-.5-.1-.5 1.8m34.9-1.4c0 1.1.3 1.4.6.6.3-.7.2-1.6-.1-1.9-.3-.4-.6.2-.5 1.3m-253.3 1.1c.7.3 1.6.2 1.9-.1.4-.3-.2-.6-1.3-.5-1.1 0-1.4.3-.6.6m64.6 1.5-1.9 2.3 2.3-1.9c2.1-1.8 2.7-2.6 1.9-2.6-.2 0-1.2 1-2.3 2.2m24.9 2.3c0 2.2.2 3 .4 1.7.2-1.2.2-3 0-4-.3-.9-.5.1-.4 2.3m46.9-.8c-2.4 2.4-2.4 2.5-.2.8 4.2-3.3 4.4-3.5 3.7-3.5-.4 0-1.9 1.2-3.5 2.7m-339.1-1.3c.2.2 1.5.9 2.9 1.5 2.4 1.1 2.4 1.1.6-.3-1.6-1.3-4.9-2.4-3.5-1.2m315.1 1.6c0 1.4.2 1.9.5 1.2.2-.6.2-1.8 0-2.5-.3-.6-.5-.1-.5 1.3m92.6-1.3c.7.3 1.6.2 1.9-.1.4-.3-.2-.6-1.3-.5-1.1 0-1.4.3-.6.6m84.4 1.3c0 1.4.2 1.9.5 1.2.2-.6.2-1.8 0-2.5-.3-.6-.5-.1-.5 1.3m-505.3.7c-1.3 1.6-1.2 1.7.4.4.9-.7 1.7-1.5 1.7-1.7 0-.8-.8-.3-2.1 1.3m257 0c-1.3 1.6-1.2 1.7.4.4.9-.7 1.7-1.5 1.7-1.7 0-.8-.8-.3-2.1 1.3m109.1-1.3c0 .2.8 1 1.8 1.7 1.5 1.3 1.6 1.2.3-.4s-2.1-2.1-2.1-1.3m40.5.6c-.3.6.1.7.9.4 1.8-.7 2.1-1.4.7-1.4-.6 0-1.3.4-1.6 1m-188.2 2.1c2 1.2 2.4 8.1.4 9.7-.7.6-3.7 1.2-6.7 1.5l-5.5.3 5.7.2c6.8.2 8.8-1.3 8.8-6.7 0-3.7-1.4-6.1-3.4-6.1-.6 0-.3.5.7 1.1m-235.2 2.5c0 1.1.3 1.4.6.6.3-.7.2-1.6-.1-1.9-.3-.4-.6.2-.5 1.3m257 0c0 1.1.3 1.4.6.6.3-.7.2-1.6-.1-1.9-.3-.4-.6.2-.5 1.3m71.8.1c-1.3 1.6-1.2 1.7.4.4.9-.7 1.7-1.5 1.7-1.7 0-.8-.8-.3-2.1 1.3m151.4 2.3c0 2.5.2 3.5.4 2.2.2-1.2.2-3.2 0-4.5-.2-1.2-.4-.2-.4 2.3m-76.9-1.7c-.6.7-1.3 3.4-1.6 6-.5 4-.4 4.5.7 3 .9-1.4 2.9-10.4 2.2-10.3-.1.1-.7.6-1.3 1.3M473.2 705c0 1.4.2 1.9.5 1.2.2-.6.2-1.8 0-2.5-.3-.6-.5-.1-.5 1.3m235.6-1.3c1.8.2 4.5.2 6 0s0-.4-3.3-.4-4.5.2-2.7.4M459.3 708c0 2.5.2 3.5.4 2.2.2-1.2.2-3.2 0-4.5-.2-1.2-.4-.2-.4 2.3m327 0c0 2.5.2 3.5.4 2.2.2-1.2.2-3.2 0-4.5-.2-1.2-.4-.2-.4 2.3m-365.1 0c0 1.4.2 1.9.5 1.2.2-.6.2-1.8 0-2.5-.3-.6-.5-.1-.5 1.3m171.2-.7c-.3.8-.3 4.5-.1 8.3l.3 6.9.2-7.4c.2-6.3.4-7.2 1.8-6.7s1.5.4.4-.9c-1.5-1.8-1.9-1.9-2.6-.2m347 1.9-1.9 2.3 2.3-1.9c2.1-1.8 2.7-2.6 1.9-2.6-.2 0-1.2 1-2.3 2.2m-466.3 2.4c0 1.1.3 1.4.6.6.3-.7.2-1.6-.1-1.9-.3-.4-.6.2-.5 1.3m417.7.1c1.8.2 4.5.2 6 0s0-.4-3.3-.4-4.5.2-2.7.4m-468.7 1.9c0 1.1.3 1.4.6.6.3-.7.2-1.6-.1-1.9-.3-.4-.6.2-.5 1.3m386.5.1c-.6 1.4-.5 1.5.5.6.7-.7 1-1.5.7-1.8s-.9.2-1.2 1.2m77.7 2.8c0 2.2.2 3 .4 1.7.2-1.2.2-3 0-4-.3-.9-.5.1-.4 2.3m77.9.5c0 1.9.2 2.7.5 1.7.2-.9.2-2.5 0-3.5-.3-.9-.5-.1-.5 1.8m-443 6c-.1 4.8-.6 9.1-1.2 9.8-.5.7-.3.6.5-.1 1.3-1.1 1.5-3.1 1.2-9.8l-.3-8.4zm237.8-7.6c0 .2.8 1 1.8 1.7 1.5 1.3 1.6 1.2.3-.4s-2.1-2.1-2.1-1.3m-62.5 2.6c1 1.1 2 2 2.3 2s-.3-.9-1.3-2-2-2-2.3-2 .3.9 1.3 2m242 0c1 1.1 2 2 2.3 2s-.3-.9-1.3-2-2-2-2.3-2 .3.9 1.3 2m-258.5-.1c0 .6.4 1.3 1 1.6s.7-.1.4-.9c-.7-1.8-1.4-2.1-1.4-.7m64.3 7.1c0 4.1.2 5.8.4 3.7.2-2 .2-5.4 0-7.5-.2-2-.4-.3-.4 3.8m-204-5c.2.8 1.2 1.6 2.3 1.7 1.3.2 1.5.1.4-.4-.8-.3-1.9-1.1-2.3-1.7-.6-.7-.7-.6-.4.4m261.7 0c-.9.6-1 1-.3 1 .6 0 1.5-.5 1.8-1 .8-1.2.4-1.2-1.5 0m119.3 5.5c0 3.8.2 5.3.4 3.2.2-2 .2-5.2 0-7-.2-1.7-.4-.1-.4 3.8M501 722.9c.5 1.1 1.5 2.3 2.1 2.7.6.3.3-.5-.6-2-2-3-3-3.5-1.5-.7m150.8-1.2c.6.2 1.8.2 2.5 0 .6-.3.1-.5-1.3-.5s-1.9.2-1.2.5m242.5 0c.9.2 2.3.2 3 0 .6-.3-.1-.5-1.8-.5-1.6 0-2.2.2-1.2.5M555.5 723c.3.5.8 1 1.1 1 .2 0 .4-.5.4-1 0-.6-.5-1-1.1-1-.5 0-.7.4-.4 1m274.5-.7c0 .2 1.5 1.6 3.3 3.3l3.2 2.9-2.9-3.3c-2.8-3-3.6-3.7-3.6-2.9m72.6 1c.3 1 .9 1.5 1.2 1.2s0-1.1-.7-1.8c-1-.9-1.1-.8-.5.6m-476.6 0c0 .2 1.5 1.6 3.3 3.3l3.2 2.9-2.9-3.3c-2.8-3-3.6-3.7-3.6-2.9m342 2.2c1.3 1.4 2.6 2.5 2.8 2.5.3 0-.5-1.1-1.8-2.5s-2.6-2.5-2.8-2.5c-.3 0 .5 1.1 1.8 2.5m-82 1c1.3 1.4 2.6 2.5 2.8 2.5.3 0-.5-1.1-1.8-2.5s-2.6-2.5-2.8-2.5c-.3 0 .5 1.1 1.8 2.5m64-2.1c0 .2.8 1 1.8 1.7 1.5 1.3 1.6 1.2.3-.4s-2.1-2.1-2.1-1.3m-89.8 3.6c0 1.9.2 2.7.5 1.7.2-.9.2-2.5 0-3.5-.3-.9-.5-.1-.5 1.8m267.8-2.6c0 .2.8 1 1.8 1.7 1.5 1.3 1.6 1.2.3-.4s-2.1-2.1-2.1-1.3m17 0c0 .2.8 1 1.8 1.7 1.5 1.3 1.6 1.2.3-.4s-2.1-2.1-2.1-1.3m19.2 3.1c0 1.6.2 2.2.5 1.2.2-.9.2-2.3 0-3-.3-.6-.5.1-.5 1.8m-459.2.2c0 .6.8 1.7 1.8 2.4 1.6 1.3 1.6 1.3.2-.6-.8-1.1-1.6-2.2-1.7-2.4q-.3-.3-.3.6m362.9 1c-1.3 1.6-1.2 1.7.4.4s2.1-2.1 1.3-2.1c-.2 0-1 .8-1.7 1.7M755.5 731c1 1.1 2 2 2.3 2s-.3-.9-1.3-2-2-2-2.3-2 .3.9 1.3 2m193.2.1c.4 1.3.8 1.8 1.1 1 .2-.7-.1-1.8-.6-2.3-.8-.8-.9-.4-.5 1.3m-392.9 1.1c-1 1-1.4 1.8-.9 1.8 1 0 3.6-2.9 3-3.4-.2-.1-1.2.6-2.1 1.6m23.2-1.3c0 .6.4 1.3 1 1.6s.7-.1.4-.9c-.7-1.8-1.4-2.1-1.4-.7m353-.5c0 .2.8 1 1.8 1.7 1.5 1.3 1.6 1.2.3-.4s-2.1-2.1-2.1-1.3m-404.3 2.7c.7.7 1.5 1 1.8.7s-.2-.9-1.2-1.2c-1.4-.6-1.5-.5-.6.5"/><path fill="gray" fill-opacity=".3" d="M445.8 682.7c1.2.2 3 .2 4 0 .9-.3-.1-.5-2.3-.4-2.2 0-3 .2-1.7.4m36.5 0c.9.2 2.5.2 3.5 0 .9-.3.1-.5-1.8-.5s-2.7.2-1.7.5m30.5 0c1.2.2 3.2.2 4.5 0 1.2-.2.2-.4-2.3-.4s-3.5.2-2.2.4m18 0c1.2.2 3.2.2 4.5 0 1.2-.2.2-.4-2.3-.4s-3.5.2-2.2.4m35 0c1.2.2 3 .2 4 0 .9-.3-.1-.5-2.3-.4-2.2 0-3 .2-1.7.4m18 0c1.2.2 3.2.2 4.5 0 1.2-.2.2-.4-2.3-.4s-3.5.2-2.2.4m52.5 0c2.6.2 6.7.2 9 0s.2-.3-4.8-.3c-4.9 0-6.8.1-4.2.3m66 0c.9.2 2.5.2 3.5 0 .9-.3.1-.5-1.8-.5s-2.7.2-1.7.5m36 0c2.6.2 6.8.2 9.5 0 2.6-.2.4-.3-4.8-.3s-7.4.1-4.7.3m58.5 0c1.2.2 3 .2 4 0 .9-.3-.1-.5-2.3-.4-2.2 0-3 .2-1.7.4m55 0c1.2.2 3.2.2 4.5 0 1.2-.2.2-.4-2.3-.4s-3.5.2-2.2.4m29 0c2.9.2 7.4.2 10 0s.2-.3-5.3-.3-7.6.1-4.7.3m35 0c2.9.2 7.4.2 10 0s.2-.3-5.3-.3-7.6.1-4.7.3m36 0c.7.3 1.6.2 1.9-.1.4-.3-.2-.6-1.3-.5-1.1 0-1.4.3-.6.6m32.5 0c.9.2 2.3.2 3 0 .6-.3-.1-.5-1.8-.5-1.6 0-2.2.2-1.2.5m-495.3.7c0 .2.8 1 1.8 1.7 1.5 1.3 1.6 1.2.3-.4s-2.1-2.1-2.1-1.3m90.5.7c-.4.6-.5 1.2-.2 1.5.2.3.7-.2 1-1.1.7-1.7.1-2-.8-.4m-71.4 2.5c0 1.1.3 1.4.6.6.3-.7.2-1.6-.1-1.9-.3-.4-.6.2-.5 1.3m13.1.4c0 1.4.2 1.9.5 1.2.2-.6.2-1.8 0-2.5-.3-.6-.5-.1-.5 1.3m40.2 18.5c0 11.5.2 16.1.3 10.2.2-5.9.2-15.4 0-21-.1-5.6-.3-.8-.3 10.8m346.9-17c0 2.2.2 3 .4 1.7.2-1.2.2-3 0-4-.3-.9-.5.1-.4 2.3m-35.1.5c0 1.9.2 2.7.5 1.7.2-.9.2-2.5 0-3.5-.3-.9-.5-.1-.5 1.8m30-1c0 1.4.2 1.9.5 1.2.2-.6.2-1.8 0-2.5-.3-.6-.5-.1-.5 1.3m-171.8 20.5c0 12.1.2 16.9.3 10.7.2-6.2.2-16.1 0-22-.1-5.9-.3-.8-.3 11.3m-223-10c0 4.9.1 7.1.3 4.8s.2-6.4 0-9-.3-.8-.3 4.2m70.9-2c0 2.2.2 3 .4 1.7.2-1.2.2-3 0-4-.3-.9-.5.1-.4 2.3m-58.1-.5c0 1.4.2 1.9.5 1.2.2-.6.2-1.8 0-2.5-.3-.6-.5-.1-.5 1.3m125.1-1.3c1.5.2 3.9.2 5.5 0 1.5-.2.2-.4-2.8-.4s-4.3.2-2.7.4m57 0c.9.2 2.5.2 3.5 0 .9-.3.1-.5-1.8-.5s-2.7.2-1.7.5m63 3.3c0 2.5.2 3.5.4 2.2.2-1.2.2-3.2 0-4.5-.2-1.2-.4-.2-.4 2.3m120.1-2.5c-1.1 2.6.4 4.5 3.3 4.4l2.8-.2-2.7-.4c-1.9-.3-2.8-1-2.8-2.3 0-1.6.9-2 6.3-2.3l6.2-.3-6.3-.2c-4.8-.2-6.4.2-6.8 1.3m56.9 2.5c0 2.5.2 3.5.4 2.2.2-1.2.2-3.2 0-4.5-.2-1.2-.4-.2-.4 2.3m-35.1-.5c0 1.6.2 2.2.5 1.2.2-.9.2-2.3 0-3-.3-.6-.5.1-.5 1.8m61.5-1.4c.7.7 1.5 1 1.8.7s-.2-.9-1.2-1.2c-1.4-.6-1.5-.5-.6.5M753.2 699c0 1.4.2 1.9.5 1.2.2-.6.2-1.8 0-2.5-.3-.6-.5-.1-.5 1.3m35.7-.3c-1.3 1.6-1.2 1.7.4.4.9-.7 1.7-1.5 1.7-1.7 0-.8-.8-.3-2.1 1.3m84.5 15.3c0 9.1.2 12.8.3 8.2.2-4.5.2-11.9 0-16.5-.1-4.5-.3-.8-.3 8.3m-229.1-14.3c.9.2 2.5.2 3.5 0 .9-.3.1-.5-1.8-.5s-2.7.2-1.7.5m9.5 0c.7.3 1.6.2 1.9-.1.4-.3-.2-.6-1.3-.5-1.1 0-1.4.3-.6.6m-74.4 15.8c0 8.2.2 11.5.3 7.2.2-4.3.2-11 0-15-.1-4-.3-.5-.3 7.8m329 .5c0 8.5.2 12 .3 7.7.2-4.2.2-11.2 0-15.5-.1-4.2-.3-.7-.3 7.8m-486.1-8c0 2.5.2 3.5.4 2.2.2-1.2.2-3.2 0-4.5-.2-1.2-.4-.2-.4 2.3m257 .5c0 2.7.2 3.8.4 2.2.2-1.5.2-3.7 0-5-.2-1.2-.4 0-.4 2.8m147 0c0 2.7.2 3.8.4 2.2.2-1.5.2-3.7 0-5-.2-1.2-.4 0-.4 2.8M592 706.1c0 .5.5.7 1 .4.6-.3 1-.8 1-1.1 0-.2-.4-.4-1-.4-.5 0-1 .5-1 1.1m247.2 1.9c0 1.4.2 1.9.5 1.2.2-.6.2-1.8 0-2.5-.3-.6-.5-.1-.5 1.3m-366.1.6c0 1.1.3 1.4.6.6.3-.7.2-1.6-.1-1.9-.3-.4-.6.2-.5 1.3m230.1.9c0 1.6.2 2.2.5 1.2.2-.9.2-2.3 0-3-.3-.6-.5.1-.5 1.8m68.9-.9c0 1.1.3 1.4.6.6.3-.7.2-1.6-.1-1.9-.3-.4-.6.2-.5 1.3m-282.7 10.9c0 6.6.1 9.2.3 5.7.2-3.4.2-8.8 0-12-.2-3.1-.3-.3-.3 6.3m18.1-10.5c-.3.5-.1 1 .4 1 .6 0 1.1-.5 1.1-1 0-.6-.2-1-.4-1-.3 0-.8.4-1.1 1m100.5-.6c0 .2.8 1 1.8 1.7 1.5 1.3 1.6 1.2.3-.4s-2.1-2.1-2.1-1.3m119.3 3.1c0 2.2.2 3 .4 1.7.2-1.2.2-3 0-4-.3-.9-.5.1-.4 2.3M521.2 713c0 1.4.2 1.9.5 1.2.2-.6.2-1.8 0-2.5-.3-.6-.5-.1-.5 1.3m122.6-1.3c.7.3 1.6.2 1.9-.1.4-.3-.2-.6-1.3-.5-1.1 0-1.4.3-.6.6m100.3 5.5c.2.2 1.8 1.4 3.4 2.8l3 2.5-2.4-2.8c-1.4-1.5-2.9-2.7-3.4-2.7-.6 0-.8.1-.6.2m176.9.9c0 .5.5.7 1 .4.6-.3 1-.8 1-1.1 0-.2-.4-.4-1-.4-.5 0-1 .5-1 1.1m-158 2.4c1.3 1.4 2.6 2.5 2.8 2.5.3 0-.5-1.1-1.8-2.5s-2.6-2.5-2.8-2.5c-.3 0 .5 1.1 1.8 2.5m-170.7 6c0 2.7.2 3.8.4 2.2.2-1.5.2-3.7 0-5-.2-1.2-.4 0-.4 2.8m310.9 1c0 1.6.2 2.2.5 1.2.2-.9.2-2.3 0-3-.3-.6-.5.1-.5 1.8M768 726.4c0 .2.8 1 1.8 1.7 1.5 1.3 1.6 1.2.3-.4s-2.1-2.1-2.1-1.3m-15 1c0 .2.8 1 1.8 1.7 1.5 1.3 1.6 1.2.3-.4s-2.1-2.1-2.1-1.3m-191.9 3.2c0 1.1.3 1.4.6.6.3-.7.2-1.6-.1-1.9-.3-.4-.6.2-.5 1.3m-11.8 3.1c.9.2 2.5.2 3.5 0 .9-.3.1-.5-1.8-.5s-2.7.2-1.7.5"/><path fill="#BFBFBF" fill-opacity=".2" d="M574.9 689.8c.2 4.1.6 5.1 1.2 3.7 1.2-3.1 1-7.1-.3-8.3-1-.8-1.2.2-.9 4.6m3.2-4.2c0 1.1.3 1.4.6.6.3-.7.2-1.6-.1-1.9-.3-.4-.6.2-.5 1.3m-70.8 5.9c0 2.7.2 3.8.4 2.2.2-1.5.2-3.7 0-5-.2-1.2-.4 0-.4 2.8m-31.1 2.5c0 1.4.2 1.9.5 1.2.2-.6.2-1.8 0-2.5-.3-.6-.5-.1-.5 1.3m102 .5c0 1.6.2 2.2.5 1.2.2-.9.2-2.3 0-3-.3-.6-.5.1-.5 1.8m167.3-.5c-.3.6.1.7.9.4 1.8-.7 2.1-1.4.7-1.4-.6 0-1.3.4-1.6 1m178.3.7c.6.2 1.8.2 2.5 0 .6-.3.1-.5-1.3-.5s-1.9.2-1.2.5M643.2 697c0 1.4.2 1.9.5 1.2.2-.6.2-1.8 0-2.5-.3-.6-.5-.1-.5 1.3m64.6-1.3c.7.3 1.6.2 1.9-.1.4-.3-.2-.6-1.3-.5-1.1 0-1.4.3-.6.6m43.8.6c.3 1 .9 1.5 1.2 1.2s0-1.1-.7-1.8c-1-.9-1.1-.8-.5.6m102.2-.6c.6.2 1.8.2 2.5 0 .6-.3.1-.5-1.3-.5s-1.9.2-1.2.5m74.3-.2c.1 1.9 1.8 5.1 1.8 3.5 0-.8-.4-2.2-.9-3s-.9-1.1-.9-.5M522.2 698c0 1.4.2 1.9.5 1.2.2-.6.2-1.8 0-2.5-.3-.6-.5-.1-.5 1.3m52.1 5c0 4.1.2 5.8.4 3.7.2-2 .2-5.4 0-7.5-.2-2-.4-.3-.4 3.8m-97.9 13c0 8.5.2 12 .3 7.7.2-4.2.2-11.2 0-15.5-.1-4.2-.3-.7-.3 7.8M927 702c-.9.6-1 1-.3 1 .6 0 1.5-.5 1.8-1 .8-1.2.4-1.2-1.5 0m-154.9 1.6c0 1.1.3 1.4.6.6.3-.7.2-1.6-.1-1.9-.3-.4-.6.2-.5 1.3M505 706.4c0 .2.8 1 1.8 1.7 1.5 1.3 1.6 1.2.3-.4s-2.1-2.1-2.1-1.3m-14.5 1.7c-.4.6-.5 1.2-.2 1.5.2.3.7-.2 1-1.1.7-1.7.1-2-.8-.4m119-.1c-.3.5-.1 1 .4 1 .6 0 1.1-.5 1.1-1 0-.6-.2-1-.4-1-.3 0-.8.4-1.1 1m120.8 2.5c0 2.2.2 3 .4 1.7.2-1.2.2-3 0-4-.3-.9-.5.1-.4 2.3m-2.1.5c0 1.9.2 2.7.5 1.7.2-.9.2-2.5 0-3.5-.3-.9-.5-.1-.5 1.8m-206.1-.4c0 1.1.3 1.4.6.6.3-.7.2-1.6-.1-1.9-.3-.4-.6.2-.5 1.3m250 2c0 1.1.3 1.4.6.6.3-.7.2-1.6-.1-1.9-.3-.4-.6.2-.5 1.3m-281.8 9.9c0 4.4.2 6.1.4 3.7.2-2.3.2-5.9 0-8-.2-2-.4-.1-.4 4.3m84 1.5c0 4.1.2 5.8.4 3.7.2-2 .2-5.4 0-7.5-.2-2-.4-.3-.4 3.8m-14 2.5c0 3.3.2 4.5.4 2.7s.2-4.5 0-6-.4 0-.4 3.3m-3.2-2c.1 1.9 1.8 5.1 1.8 3.5 0-.8-.4-2.2-.9-3s-.9-1.1-.9-.5m-31 6.1c0 1.1.3 1.4.6.6.3-.7.2-1.6-.1-1.9-.3-.4-.6.2-.5 1.3"/><path fill="#404040" fill-opacity=".2" d="M617.3 682.7c.9.2 2.5.2 3.5 0 .9-.3.1-.5-1.8-.5s-2.7.2-1.7.5m6.1 25.3c0 12.9.2 18.2.3 11.7.2-6.4.2-17 0-23.5-.1-6.4-.3-1.1-.3 11.8M864 696c-2.3.7-2.3.8-.3.9 1.2.1 2.5-.4 2.8-.9.3-.6.5-1 .3-.9s-1.4.5-2.8.9m-148.2 2.7c.7.3 1.6.2 1.9-.1.4-.3-.2-.6-1.3-.5-1.1 0-1.4.3-.6.6m-280.7 9.9c0 1.1.3 1.4.6.6.3-.7.2-1.6-.1-1.9-.3-.4-.6.2-.5 1.3m542.3 11.9c0 6 .1 8.4.3 5.2s.2-8.1 0-11-.3-.3-.3 5.8m-266.6-5.8c.7.3 1.6.2 1.9-.1.4-.3-.2-.6-1.3-.5-1.1 0-1.4.3-.6.6m151.5 5c.9.2 2.3.2 3 0 .6-.3-.1-.5-1.8-.5-1.6 0-2.2.2-1.2.5m-157.5 2c.7.3 1.6.2 1.9-.1.4-.3-.2-.6-1.3-.5-1.1 0-1.4.3-.6.6m18.1 3c-1.3 1.6-1.2 1.7.4.4s2.1-2.1 1.3-2.1c-.2 0-1 .8-1.7 1.7m194.6 8.3-3 .8 2.7.1c1.5 0 3-.4 3.3-.9.3-.6.5-.9.3-.9-.2.1-1.6.5-3.3.9m48.4.3c.5.5 3 .7 5.7.5l4.9-.3-5.7-.5c-3.1-.3-5.3-.1-4.9.3m-519.6.4c.9.2 2.5.2 3.5 0 .9-.3.1-.5-1.8-.5s-2.7.2-1.7.5m34.5 0c1.2.2 3.2.2 4.5 0 1.2-.2.2-.4-2.3-.4s-3.5.2-2.2.4m31.5 0c1.5.2 3.7.2 5 0 1.2-.2 0-.4-2.8-.4-2.7 0-3.8.2-2.2.4m23 0c1.5.2 3.9.2 5.5 0 1.5-.2.2-.4-2.8-.4s-4.3.2-2.7.4m29.5 0c1.2.2 3.2.2 4.5 0 1.2-.2.2-.4-2.3-.4s-3.5.2-2.2.4m19 0c1.2.2 3.2.2 4.5 0 1.2-.2.2-.4-2.3-.4s-3.5.2-2.2.4m30.5 0c1.5.2 3.9.2 5.5 0 1.5-.2.2-.4-2.8-.4s-4.3.2-2.7.4m21.5 0c2.3.2 6.1.2 8.5 0 2.3-.2.4-.4-4.3-.4s-6.6.2-4.2.4m67 0c1.2.2 3 .2 4 0 .9-.3-.1-.5-2.3-.4-2.2 0-3 .2-1.7.4m32.5 0c1.5.2 3.7.2 5 0 1.2-.2 0-.4-2.8-.4-2.7 0-3.8.2-2.2.4m26.5 0c1.8.2 4.5.2 6 0s0-.4-3.3-.4-4.5.2-2.7.4m35 0c1.2.2 3 .2 4 0 .9-.3-.1-.5-2.3-.4-2.2 0-3 .2-1.7.4m55 0c1.2.2 3 .2 4 0 .9-.3-.1-.5-2.3-.4-2.2 0-3 .2-1.7.4m28 0c2.3.2 6.1.2 8.5 0 2.3-.2.4-.4-4.3-.4s-6.6.2-4.2.4m31 0c.7.3 1.6.2 1.9-.1.4-.3-.2-.6-1.3-.5-1.1 0-1.4.3-.6.6m29 0c1.8.2 4.5.2 6 0s0-.4-3.3-.4-4.5.2-2.7.4"/><path fill="#404040" fill-opacity=".3" d="M650.3 682.7c.9.2 2.5.2 3.5 0 .9-.3.1-.5-1.8-.5s-2.7.2-1.7.5m245.5 0c.7.3 1.6.2 1.9-.1.4-.3-.2-.6-1.3-.5-1.1 0-1.4.3-.6.6m59 0c.7.3 1.6.2 1.9-.1.4-.3-.2-.6-1.3-.5-1.1 0-1.4.3-.6.6m-427.4 1.7c-.3.7-.4 3.3-.2 5.7.3 4.3.4 4.2.8-1.4.5-5.8.4-6.8-.6-4.3m452.5.3c-1.3 1.6-1.2 1.7.4.4s2.1-2.1 1.3-2.1c-.2 0-1 .8-1.7 1.7M477.4 694c0 5.2.1 7.4.3 4.7.2-2.6.2-6.8 0-9.5-.2-2.6-.3-.4-.3 4.8m62 8c0 9.6.2 13.6.3 8.7.2-4.8.2-12.6 0-17.5-.1-4.8-.3-.8-.3 8.8m72-5c0 6.9.1 9.7.3 6.2.2-3.4.2-9 0-12.5-.2-3.4-.3-.6-.3 6.3M465 690.5c1.9 1.9 3.6 3.5 3.9 3.5s-1-1.6-2.9-3.5-3.6-3.5-3.9-3.5 1 1.6 2.9 3.5m221.4-.3-2.9 3.3 3.3-2.9c3-2.8 3.7-3.6 2.9-3.6-.2 0-1.6 1.5-3.3 3.2m-257.5.5c-1.3 1.6-1.2 1.7.4.4s2.1-2.1 1.3-2.1c-.2 0-1 .8-1.7 1.7M630.4 710c0 11.8.2 16.7.3 10.7.2-5.9.2-15.5 0-21.5-.1-5.9-.3-1-.3 10.8M815 689.4c0 .2.8 1 1.8 1.7 1.5 1.3 1.6 1.2.3-.4s-2.1-2.1-2.1-1.3m18.4 1.8-1.9 2.3 2.3-1.9c2.1-1.8 2.7-2.6 1.9-2.6-.2 0-1.2 1-2.3 2.2m-114.5 4.5-2.4 2.8 2.8-2.4c1.5-1.4 2.7-2.6 2.7-2.8 0-.8-.8-.1-3.1 2.4m-272.1-1c.7.3 1.6.2 1.9-.1.4-.3-.2-.6-1.3-.5-1.1 0-1.4.3-.6.6m350 0c.6.2 1.8.2 2.5 0 .6-.3.1-.5-1.3-.5s-1.9.2-1.2.5m-361.7 10.9c0 1.1.3 1.4.6.6.3-.7.2-1.6-.1-1.9-.3-.4-.6.2-.5 1.3m312.7-.9c.7.3 1.6.2 1.9-.1.4-.3-.2-.6-1.3-.5-1.1 0-1.4.3-.6.6m-55.6 3.3c0 1.9.2 2.7.5 1.7.2-.9.2-2.5 0-3.5-.3-.9-.5-.1-.5 1.8m118 .5c0 1.6.2 2.2.5 1.2.2-.9.2-2.3 0-3-.3-.6-.5.1-.5 1.8M573.3 715c0 4.7.2 6.6.4 4.2.2-2.3.2-6.1 0-8.5-.2-2.3-.4-.4-.4 4.3m-138.2-3.4c0 1.1.3 1.4.6.6.3-.7.2-1.6-.1-1.9-.3-.4-.6.2-.5 1.3m92.2 7.9c0 3.8.2 5.3.4 3.2.2-2 .2-5.2 0-7-.2-1.7-.4-.1-.4 3.8m115-2.5c0 2.5.2 3.5.4 2.2.2-1.2.2-3.2 0-4.5-.2-1.2-.4-.2-.4 2.3m-165 2.5c0 3.3.2 4.5.4 2.7s.2-4.5 0-6-.4 0-.4 3.3m-38.8-1.5c1 1.1 2 2 2.3 2s-.3-.9-1.3-2-2-2-2.3-2 .3.9 1.3 2m367.4.7c-1.3 1.6-1.2 1.7.4.4.9-.7 1.7-1.5 1.7-1.7 0-.8-.8-.3-2.1 1.3m132.1-.3c0 .2.8 1 1.8 1.7 1.5 1.3 1.6 1.2.3-.4s-2.1-2.1-2.1-1.3m-491.7 3.3c.9.2 2.5.2 3.5 0 .9-.3.1-.5-1.8-.5s-2.7.2-1.7.5m255.5 0c.7.3 1.6.2 1.9-.1.4-.3-.2-.6-1.3-.5-1.1 0-1.4.3-.6.6m95.5 0c.9.2 2.3.2 3 0 .6-.3-.1-.5-1.8-.5-1.6 0-2.2.2-1.2.5m56.5 0c.6.2 1.8.2 2.5 0 .6-.3.1-.5-1.3-.5s-1.9.2-1.2.5m-300.8.7c0 .2.7.7 1.6 1 .8.3 1.2.2.9-.4-.6-1-2.5-1.4-2.5-.6m105.6 1.9c.3 1 .9 1.5 1.2 1.2s0-1.1-.7-1.8c-1-.9-1.1-.8-.5.6m156.3 2.4-2.4 2.8 2.8-2.4c1.5-1.4 2.7-2.6 2.7-2.8 0-.8-.8-.1-3.1 2.4m20.1-.3c0 .2.8 1 1.8 1.7 1.5 1.3 1.6 1.2.3-.4s-2.1-2.1-2.1-1.3m-176.4 5.3c-.6 1.4-.5 1.5.5.6.7-.7 1-1.5.7-1.8s-.9.2-1.2 1.2m274.4-1.3c0 .2.8 1 1.8 1.7 1.5 1.3 1.6 1.2.3-.4s-2.1-2.1-2.1-1.3m15.1 1.2c0 1.1.3 1.4.6.6.3-.7.2-1.6-.1-1.9-.3-.4-.6.2-.5 1.3m-506.3 1.1c.7.3 1.6.2 1.9-.1.4-.3-.2-.6-1.3-.5-1.1 0-1.4.3-.6.6m102.5 1c.9.2 2.3.2 3 0 .6-.3-.1-.5-1.8-.5-1.6 0-2.2.2-1.2.5m105.5 0c1.2.2 3.2.2 4.5 0 1.2-.2.2-.4-2.3-.4s-3.5.2-2.2.4m244 0c1.2.2 3.2.2 4.5 0 1.2-.2.2-.4-2.3-.4s-3.5.2-2.2.4"/><path fill="#404040" fill-opacity=".4" d="M451.8 683.7c.7.3 1.6.2 1.9-.1.4-.3-.2-.6-1.3-.5-1.1 0-1.4.3-.6.6m37.7 1.3c1 1.1 2 2 2.3 2s-.3-.9-1.3-2-2-2-2.3-2 .3.9 1.3 2m20-.9c-.4.6-.5 1.2-.2 1.5.2.3.7-.2 1-1.1.7-1.7.1-2-.8-.4m81.5-.7c0 .2.8 1 1.8 1.7 1.5 1.3 1.6 1.2.3-.4s-2.1-2.1-2.1-1.3m127 4c0 .2.8 1 1.8 1.7 1.5 1.3 1.6 1.2.3-.4s-2.1-2.1-2.1-1.3m-288.6 3.8-2.9 3.3 3.3-2.9c3-2.8 3.7-3.6 2.9-3.6-.2 0-1.6 1.5-3.3 3.2m383.6-2.9c0 .2 1.5 1.6 3.3 3.3l3.2 2.9-2.9-3.3c-2.8-3-3.6-3.7-3.6-2.9m-33.6 2.9-1.9 2.3 2.3-1.9c2.1-1.8 2.7-2.6 1.9-2.6-.2 0-1.2 1-2.3 2.2m94.9 3.8c0 2.5.2 3.5.4 2.2.2-1.2.2-3.2 0-4.5-.2-1.2-.4-.2-.4 2.3m-128.5-2.3c.6.2 1.8.2 2.5 0 .6-.3.1-.5-1.3-.5s-1.9.2-1.2.5m19.3.9c0 1.1.3 1.4.6.6.3-.7.2-1.6-.1-1.9-.3-.4-.6.2-.5 1.3m-270.1-.2c0 .2.8 1 1.8 1.7 1.5 1.3 1.6 1.2.3-.4s-2.1-2.1-2.1-1.3m32.2 3.6c0 1.9.2 2.7.5 1.7.2-.9.2-2.5 0-3.5-.3-.9-.5-.1-.5 1.8m46.1 3.5c0 3.8.2 5.3.4 3.2.2-2 .2-5.2 0-7-.2-1.7-.4-.1-.4 3.8m280-5.8c.9.2 2.5.2 3.5 0 .9-.3.1-.5-1.8-.5s-2.7.2-1.7.5m119.6 1c-1.3 1.6-1.2 1.7.4.4.9-.7 1.7-1.5 1.7-1.7 0-.8-.8-.3-2.1 1.3M642.2 697c0 1.4.2 1.9.5 1.2.2-.6.2-1.8 0-2.5-.3-.6-.5-.1-.5 1.3m53.7.7-2.4 2.8 2.8-2.4c1.5-1.4 2.7-2.6 2.7-2.8 0-.8-.8-.1-3.1 2.4M455 696.4c0 .2.8 1 1.8 1.7 1.5 1.3 1.6 1.2.3-.4s-2.1-2.1-2.1-1.3m288.2 2.1c0 1.6.2 2.2.5 1.2.2-.9.2-2.3 0-3-.3-.6-.5.1-.5 1.8m99.2.7-1.9 2.3 2.3-1.9c2.1-1.8 2.7-2.6 1.9-2.6-.2 0-1.2 1-2.3 2.2m-262.2 1.3c0 1.6.2 2.2.5 1.2.2-.9.2-2.3 0-3-.3-.6-.5.1-.5 1.8m100 2.5c0 1.4.2 1.9.5 1.2.2-.6.2-1.8 0-2.5-.3-.6-.5-.1-.5 1.3m-202.9 5.5c0 3.3.2 4.5.4 2.7s.2-4.5 0-6-.4 0-.4 3.3m296 0c0 3.3.2 4.5.4 2.7s.2-4.5 0-6-.4 0-.4 3.3m-301.2-2.9c0 1.1.3 1.4.6.6.3-.7.2-1.6-.1-1.9-.3-.4-.6.2-.5 1.3m37.1 1.4c0 1.9.2 2.7.5 1.7.2-.9.2-2.5 0-3.5-.3-.9-.5-.1-.5 1.8m199.1-2.3c1.5.2 3.9.2 5.5 0 1.5-.2.2-.4-2.8-.4s-4.3.2-2.7.4m77 3.3c0 2.5.2 3.5.4 2.2.2-1.2.2-3.2 0-4.5-.2-1.2-.4-.2-.4 2.3m-193.9 5.5c0 4.9.1 7.1.3 4.8s.2-6.4 0-9-.3-.8-.3 4.2m231.8-5.5c0 1.4.2 1.9.5 1.2.2-.6.2-1.8 0-2.5-.3-.6-.5-.1-.5 1.3m-296 2.5c0 1.6.2 2.2.5 1.2.2-.9.2-2.3 0-3-.3-.6-.5.1-.5 1.8m371.8-.9c-1.7.9-2 1.4-.9 1.4.9 0 2.2-.7 2.9-1.5 1.5-1.8 1.3-1.8-2 .1m-426.9 1c0 1.1.3 1.4.6.6.3-.7.2-1.6-.1-1.9-.3-.4-.6.2-.5 1.3m108.2 2.4c0 2.5.2 3.5.4 2.2.2-1.2.2-3.2 0-4.5-.2-1.2-.4-.2-.4 2.3m308.5-2.3c.6.2 1.8.2 2.5 0 .6-.3.1-.5-1.3-.5s-1.9.2-1.2.5m46.2.8c-.7.9-1.1 1.7-.9 2 .3.2 1-.5 1.7-1.5 1.4-2.4 1-2.6-.8-.5m-511.9 2.1c0 1.1.3 1.4.6.6.3-.7.2-1.6-.1-1.9-.3-.4-.6.2-.5 1.3m257 0c0 1.1.3 1.4.6.6.3-.7.2-1.6-.1-1.9-.3-.4-.6.2-.5 1.3m147 0c0 1.1.3 1.4.6.6.3-.7.2-1.6-.1-1.9-.3-.4-.6.2-.5 1.3m138.3 7.9c0 5.5.1 7.6.3 4.7s.2-7.4 0-10-.3-.2-.3 5.3M758 715.4c0 .2.8 1 1.8 1.7 1.5 1.3 1.6 1.2.3-.4s-2.1-2.1-2.1-1.3m84.5 1.6c1 1.1 2 2 2.3 2s-.3-.9-1.3-2-2-2-2.3-2 .3.9 1.3 2m92.5-1.6c0 .2.8 1 1.8 1.7 1.5 1.3 1.6 1.2.3-.4s-2.1-2.1-2.1-1.3M520.3 721c0 3 .2 4.3.4 2.7.2-1.5.2-3.9 0-5.5-.2-1.5-.4-.2-.4 2.8m175.7-2.5c1.3 1.4 2.6 2.5 2.8 2.5.3 0-.5-1.1-1.8-2.5s-2.6-2.5-2.8-2.5c-.3 0 .5 1.1 1.8 2.5m92.5-.5c1 1.1 2 2 2.3 2s-.3-.9-1.3-2-2-2-2.3-2 .3.9 1.3 2m-332.6.7c-1.3 1.6-1.2 1.7.4.4.9-.7 1.7-1.5 1.7-1.7 0-.8-.8-.3-2.1 1.3m290.1-1.3c0 .2.8 1 1.8 1.7 1.5 1.3 1.6 1.2.3-.4s-2.1-2.1-2.1-1.3m-2.7 7.1c0 3.8.2 5.3.4 3.2.2-2 .2-5.2 0-7-.2-1.7-.4-.1-.4 3.8m180.7-6.1c0 .2.8 1 1.8 1.7 1.5 1.3 1.6 1.2.3-.4s-2.1-2.1-2.1-1.3m-159 5.1c1.3 1.4 2.6 2.5 2.8 2.5.3 0-.5-1.1-1.8-2.5s-2.6-2.5-2.8-2.5c-.3 0 .5 1.1 1.8 2.5m-220.2-.8c1.8.2 4.5.2 6 0s0-.4-3.3-.4-4.5.2-2.7.4m102 0c1.7.2 4.7.2 6.5 0 1.7-.2.3-.4-3.3-.4s-5 .2-3.2.4m244 0c1.8.2 4.5.2 6 0s0-.4-3.3-.4-4.5.2-2.7.4m36.2-.3c0 .2.8 1 1.8 1.7 1.5 1.3 1.6 1.2.3-.4s-2.1-2.1-2.1-1.3m15.5 1.6c1 1.1 2 2 2.3 2s-.3-.9-1.3-2-2-2-2.3-2 .3.9 1.3 2m-477.1 1.2-1.9 2.3 2.3-1.9c2.1-1.8 2.7-2.6 1.9-2.6-.2 0-1.2 1-2.3 2.2m107.8.8c0 1.9.2 2.7.5 1.7.2-.9.2-2.5 0-3.5-.3-.9-.5-.1-.5 1.8m258.8-2.6c0 .2.8 1 1.8 1.7 1.5 1.3 1.6 1.2.3-.4s-2.1-2.1-2.1-1.3m69.6.9c.3 1 .9 1.5 1.2 1.2s0-1.1-.7-1.8c-1-.9-1.1-.8-.5.6m-473.6.1c0 .2.8 1 1.8 1.7 1.5 1.3 1.6 1.2.3-.4s-2.1-2.1-2.1-1.3m257 0c0 .2.8 1 1.8 1.7 1.5 1.3 1.6 1.2.3-.4s-2.1-2.1-2.1-1.3m-207.8 3.1c0 1.6.2 2.2.5 1.2.2-.9.2-2.3 0-3-.3-.6-.5.1-.5 1.8m79 .5c0 1.9.2 2.7.5 1.7.2-.9.2-2.5 0-3.5-.3-.9-.5-.1-.5 1.8m-29 .5c0 1.6.2 2.2.5 1.2.2-.9.2-2.3 0-3-.3-.6-.5.1-.5 1.8m132-.5c0 1.4.2 1.9.5 1.2.2-.6.2-1.8 0-2.5-.3-.6-.5-.1-.5 1.3m59.7-.3c-1.3 1.6-1.2 1.7.4.4.9-.7 1.7-1.5 1.7-1.7 0-.8-.8-.3-2.1 1.3m34.1-1.3c0 .2.8 1 1.8 1.7 1.5 1.3 1.6 1.2.3-.4s-2.1-2.1-2.1-1.3m28 0c0 .2.8 1 1.8 1.7 1.5 1.3 1.6 1.2.3-.4s-2.1-2.1-2.1-1.3M580.2 729c0 1.4.2 1.9.5 1.2.2-.6.2-1.8 0-2.5-.3-.6-.5-.1-.5 1.3m189.4.3c.3 1 .9 1.5 1.2 1.2s0-1.1-.7-1.8c-1-.9-1.1-.8-.5.6m-249.5 1.3c0 1.1.3 1.4.6.6.3-.7.2-1.6-.1-1.9-.3-.4-.6.2-.5 1.3m88.9-1.2c0 .2.8 1 1.8 1.7 1.5 1.3 1.6 1.2.3-.4s-2.1-2.1-2.1-1.3m98.8 3.3c.7.3 1.6.2 1.9-.1.4-.3-.2-.6-1.3-.5-1.1 0-1.4.3-.6.6"/><path fill="#404040" fill-opacity=".5" d="M444.8 683.7c.7.3 1.6.2 1.9-.1.4-.3-.2-.6-1.3-.5-1.1 0-1.4.3-.6.6m256 0c.7.3 1.6.2 1.9-.1.4-.3-.2-.6-1.3-.5-1.1 0-1.4.3-.6.6m5 0c.7.3 1.6.2 1.9-.1.4-.3-.2-.6-1.3-.5-1.1 0-1.4.3-.6.6m95 0c.7.3 1.6.2 1.9-.1.4-.3-.2-.6-1.3-.5-1.1 0-1.4.3-.6.6m55 0c.7.3 1.6.2 1.9-.1.4-.3-.2-.6-1.3-.5-1.1 0-1.4.3-.6.6m-335.9 3.5c.4 2.8.6 2.9.9.9.2-1.3 0-2.7-.5-3.2-.6-.6-.7.3-.4 2.3m60.6-2.1c-.4.6-.5 1.2-.2 1.5.2.3.7-.2 1-1.1.7-1.7.1-2-.8-.4m-71.1 9.9c0 5.2.1 7.4.3 4.7.2-2.6.2-6.8 0-9.5-.2-2.6-.3-.4-.3 4.8m63.9-5c0 2.5.2 3.5.4 2.2.2-1.2.2-3.2 0-4.5-.2-1.2-.4-.2-.4 2.3m300.9-1.5c0 1.6.2 2.2.5 1.2.2-.9.2-2.3 0-3-.3-.6-.5.1-.5 1.8m28-.5c0 1.4.2 1.9.5 1.2.2-.6.2-1.8 0-2.5-.3-.6-.5-.1-.5 1.3m7.1 1.5c0 2.2.2 3 .4 1.7.2-1.2.2-3 0-4-.3-.9-.5.1-.4 2.3m-176.9 19c0 12.1.2 16.9.3 10.7.2-6.2.2-16.1 0-22-.1-5.9-.3-.8-.3 11.3M938 687.4c0 .2.8 1 1.8 1.7 1.5 1.3 1.6 1.2.3-.4s-2.1-2.1-2.1-1.3m-104.6 4.8-1.9 2.3 2.3-1.9c2.1-1.8 2.7-2.6 1.9-2.6-.2 0-1.2 1-2.3 2.2m-313.2 2.3c0 1.6.2 2.2.5 1.2.2-.9.2-2.3 0-3-.3-.6-.5.1-.5 1.8m60 .5c0 1.9.2 2.7.5 1.7.2-.9.2-2.5 0-3.5-.3-.9-.5-.1-.5 1.8m168.8-2.6c0 .2.7.7 1.6 1 .8.3 1.2.2.9-.4-.6-1-2.5-1.4-2.5-.6m175.8.3c.7.3 1.6.2 1.9-.1.4-.3-.2-.6-1.3-.5-1.1 0-1.4.3-.6.6M642.5 694c-.3.6.1.7.9.4 1.8-.7 2.1-1.4.7-1.4-.6 0-1.3.4-1.6 1m245.8-.3c.9.2 2.3.2 3 0 .6-.3-.1-.5-1.8-.5-1.6 0-2.2.2-1.2.5m39.7-.3c0 .2.8 1 1.8 1.7 1.5 1.3 1.6 1.2.3-.4s-2.1-2.1-2.1-1.3M909.4 712c0 10.2.2 14.3.3 9.2.2-5 .2-13.4 0-18.5-.1-5-.3-.9-.3 9.3m32.7-16.4c0 1.1.3 1.4.6.6.3-.7.2-1.6-.1-1.9-.3-.4-.6.2-.5 1.3m-176.8 2.9c0 2.2.2 3 .4 1.7.2-1.2.2-3 0-4-.3-.9-.5.1-.4 2.3m119.9-1.5c0 1.4.2 1.9.5 1.2.2-.6.2-1.8 0-2.5-.3-.6-.5-.1-.5 1.3m-190.3.7c-1.3 1.6-1.2 1.7.4.4.9-.7 1.7-1.5 1.7-1.7 0-.8-.8-.3-2.1 1.3m275.9 0c.7.3 1.6.2 1.9-.1.4-.3-.2-.6-1.3-.5-1.1 0-1.4.3-.6.6M874.4 714c0 8.5.2 12 .3 7.7.2-4.2.2-11.2 0-15.5-.1-4.2-.3-.7-.3 7.8M743 702.4c0 .8.4 1.7.9 2 .5.4.7-.3.4-1.4-.6-2.3-1.3-2.6-1.3-.6m8.9 1.3c-1.3 1.6-1.2 1.7.4.4s2.1-2.1 1.3-2.1c-.2 0-1 .8-1.7 1.7M580.2 706c0 1.9.2 2.7.5 1.7.2-.9.2-2.5 0-3.5-.3-.9-.5-.1-.5 1.8m-156.9 2c0 2.5.2 3.5.4 2.2.2-1.2.2-3.2 0-4.5-.2-1.2-.4-.2-.4 2.3m168.5-3.3c.7.3 1.6.2 1.9-.1.4-.3-.2-.6-1.3-.5-1.1 0-1.4.3-.6.6m235.5 3.3c0 2.5.2 3.5.4 2.2.2-1.2.2-3.2 0-4.5-.2-1.2-.4-.2-.4 2.3m-147 .5c0 2.2.2 3 .4 1.7.2-1.2.2-3 0-4-.3-.9-.5.1-.4 2.3m-23.7.2c-.6 1.4-.5 1.5.5.6.7-.7 1-1.5.7-1.8s-.9.2-1.2 1.2m47.6.8c0 1.6.2 2.2.5 1.2.2-.9.2-2.3 0-3-.3-.6-.5.1-.5 1.8m56.7-.8c-1.3 1.6-1.2 1.7.4.4.9-.7 1.7-1.5 1.7-1.7 0-.8-.8-.3-2.1 1.3m-114.6 2c1.5.2 3.9.2 5.5 0 1.5-.2.2-.4-2.8-.4s-4.3.2-2.7.4m247 0c.9.2 2.3.2 3 0 .6-.3-.1-.5-1.8-.5-1.6 0-2.2.2-1.2.5m-373.1 2.8c0 1.6.2 2.2.5 1.2.2-.9.2-2.3 0-3-.3-.6-.5.1-.5 1.8m365.1 3c0 2.7.2 3.8.4 2.2.2-1.5.2-3.7 0-5-.2-1.2-.4 0-.4 2.8m-141.6-.8c-.4.3-.7 1.1-.7 1.7s.4.5.9-.3c.8-1.3 1.2-1.3 2.8 0s1.7 1.3.4-.4c-1.4-1.8-2.4-2.1-3.4-1m177.4-.4c.2.1 1.3.9 2.4 1.7 1.9 1.4 1.9 1.4.6-.3-.7-.9-1.8-1.7-2.4-1.7q-.9 0-.6.3M580.3 722c0 3 .2 4.3.4 2.7.2-1.5.2-3.9 0-5.5-.2-1.5-.4-.2-.4 2.8m357.7-2.6c0 .2.8 1 1.8 1.7 1.5 1.3 1.6 1.2.3-.4s-2.1-2.1-2.1-1.3M591.3 726c0 2.5.2 3.5.4 2.2.2-1.2.2-3.2 0-4.5-.2-1.2-.4-.2-.4 2.3m92.7-3.6c0 .2.8 1 1.8 1.7 1.5 1.3 1.6 1.2.3-.4s-2.1-2.1-2.1-1.3m215 1c0 .2.7.7 1.6 1 .8.3 1.2.2.9-.4-.6-1-2.5-1.4-2.5-.6M766.5 726c1 1.1 2 2 2.3 2s-.3-.9-1.3-2-2-2-2.3-2 .3.9 1.3 2m-246.4 1.6c0 1.1.3 1.4.6.6.3-.7.2-1.6-.1-1.9-.3-.4-.6.2-.5 1.3m382 0c0 1.1.3 1.4.6.6.3-.7.2-1.6-.1-1.9-.3-.4-.6.2-.5 1.3m41.9-1.2c0 .2.8 1 1.8 1.7 1.5 1.3 1.6 1.2.3-.4s-2.1-2.1-2.1-1.3m-11 3c0 .2.8 1 1.8 1.7 1.5 1.3 1.6 1.2.3-.4s-2.1-2.1-2.1-1.3m-73.2 2.3c.7.3 1.6.2 1.9-.1.4-.3-.2-.6-1.3-.5-1.1 0-1.4.3-.6.6"/><path fill-opacity=".5" d="M479.2 684.2c-.7.7-1.1 2.3-1.1 3.7.1 2.4.2 2.4.8-.4.5-2.7 1.1-3.1 5.1-3.6l4.5-.6-4-.1c-2.3-.1-4.6.3-5.3 1m31.4-.4c-.2.4 1.2.6 3.2.4 5.6-.5 6.2-1 1.5-1.1-2.3-.1-4.4.3-4.7.7m23.2-.1c.6.2 1.8.2 2.5 0 .6-.3.1-.5-1.3-.5s-1.9.2-1.2.5m29.4.5c-.9.9-1.1 6.4-1 19.7l.2 18.6.6-19 .5-19 4-.6 4-.6-3.5-.2c-2 0-4.1.4-4.8 1.1m24.6-.5c.7.3 1.6.2 1.9-.1.4-.3-.2-.6-1.3-.5-1.1 0-1.4.3-.6.6m28 0c1.2.2 3 .2 4 0 .9-.3-.1-.5-2.3-.4-2.2 0-3 .2-1.7.4m15.7.4c-1.1 1.6-.1 1.9 1.3.3.7-.8.8-1.4.3-1.4s-1.3.5-1.6 1.1m9.3-.4c2.8.2 7.6.2 10.5 0 2.8-.2.5-.3-5.3-.3s-8.1.1-5.2.3m92.9 0c-.3.5 2.5.7 6.1.5 11.6-.5 13-.9 3.5-1-5-.1-9.4.1-9.6.5m64.1 0c.7.3 1.6.2 1.9-.1.4-.3-.2-.6-1.3-.5-1.1 0-1.4.3-.6.6m55 0c.7.3 1.6.2 1.9-.1.4-.3-.2-.6-1.3-.5-1.1 0-1.4.3-.6.6m22.9 0c-.3.5 3.4.7 8.1.5 15.3-.4 17-.8 4.5-1-6.7-.1-12.4.1-12.6.5m34.8.3c-.3.6.1.7.9.4 1.8-.7 2.1-1.4.7-1.4-.6 0-1.3.4-1.6 1m7.3-.3c2.3.2 5.9.2 8 0 2-.2.1-.4-4.3-.4s-6.1.2-3.7.4m32.8.1c-.2.4 1.2.6 3.2.4 5.6-.5 6.2-1 1.5-1.1-2.3-.1-4.4.3-4.7.7m34.2-.1c1.2.2 3.2.2 4.5 0 1.2-.2.2-.4-2.3-.4s-3.5.2-2.2.4m-327.1 2.4c.4 1.3.8 1.8 1.1 1 .2-.7-.1-1.8-.6-2.3-.8-.8-.9-.4-.5 1.3m-201.7-.7c0 .2.7.7 1.6 1 .8.3 1.2.2.9-.4-.6-1-2.5-1.4-2.5-.6m82.1 1.2c0 1.1.3 1.4.6.6.3-.7.2-1.6-.1-1.9-.3-.4-.6.2-.5 1.3m84.3 20.9c0 12.6.2 17.7.3 11.2.2-6.5.2-16.8 0-23-.1-6.2-.3-.9-.3 11.8M464.5 691c1 1.1 2 2 2.3 2s-.3-.9-1.3-2-2-2-2.3-2 .3.9 1.3 2m193.1-.3c-.6 1.4-.5 1.5.5.6.7-.7 1-1.5.7-1.8s-.9.2-1.2 1.2m60.8 4.5-1.9 2.3 2.3-1.9c2.1-1.8 2.7-2.6 1.9-2.6-.2 0-1.2 1-2.3 2.2m-280.5 2.5c-1.3 1.6-1.2 1.7.4.4.9-.7 1.7-1.5 1.7-1.7 0-.8-.8-.3-2.1 1.3m316.3 1.3c0 1.4.2 1.9.5 1.2.2-.6.2-1.8 0-2.5-.3-.6-.5-.1-.5 1.3m187.9-.4c0 1.1.3 1.4.6.6.3-.7.2-1.6-.1-1.9-.3-.4-.6.2-.5 1.3m-297.8 2.1c.9.2 2.3.2 3 0 .6-.3-.1-.5-1.8-.5-1.6 0-2.2.2-1.2.5m243.5 0c.6.2 1.8.2 2.5 0 .6-.3.1-.5-1.3-.5s-1.9.2-1.2.5m13.3 3.9c0 1.1.3 1.4.6.6.3-.7.2-1.6-.1-1.9-.3-.4-.6.2-.5 1.3M572.3 714c0 4.7.2 6.6.4 4.2.2-2.3.2-6.1 0-8.5-.2-2.3-.4-.4-.4 4.3m265.9-6c0 1.4.2 1.9.5 1.2.2-.6.2-1.8 0-2.5-.3-.6-.5-.1-.5 1.3m-349.9 3.5c0 2.7.2 3.8.4 2.2.2-1.5.2-3.7 0-5-.2-1.2-.4 0-.4 2.8m237.9-2.5c0 1.4.2 1.9.5 1.2.2-.6.2-1.8 0-2.5-.3-.6-.5-.1-.5 1.3m250.2 12c0 5.8.1 8.1.3 5.2.2-2.8.2-7.6 0-10.5-.2-2.8-.3-.5-.3 5.3m-264.6-7.3c.7.3 1.6.2 1.9-.1.4-.3-.2-.6-1.3-.5-1.1 0-1.4.3-.6.6M437 717.4c0 .2.8 1 1.8 1.7 1.5 1.3 1.6 1.2.3-.4s-2.1-2.1-2.1-1.3m483.3 6.6c0 3.6.2 5 .4 3.2.2-1.7.2-4.7 0-6.5-.2-1.7-.4-.3-.4 3.3m-57.5-3.3c.7.3 1.6.2 1.9-.1.4-.3-.2-.6-1.3-.5-1.1 0-1.4.3-.6.6M488 727.2c-.3 2.6-.1 4.3.3 3.9.5-.5.7-2.6.5-4.7l-.3-3.9zm345-3.8c0 .2.8 1 1.8 1.7 1.5 1.3 1.6 1.2.3-.4s-2.1-2.1-2.1-1.3m34.1 4.9c-1.3 2.1-1.2 2.1.5.5 1-1 1.6-2 1.3-2.2-.3-.3-1.1.5-1.8 1.7m-295.5 2.4c-.6 1.4-.5 1.5.5.6.7-.7 1-1.5.7-1.8s-.9.2-1.2 1.2m59.7.3c.3 1.2 2.2 1.5 9.3 1.6h8.9l-8.5-.3c-5-.2-8.8-.9-9.3-1.6-.6-.8-.7-.8-.4.3m24.7.6c-1.7.9-2 1.4-.9 1.4.9 0 2.2-.7 2.9-1.5 1.5-1.8 1.3-1.8-2 .1m-174.7 1.1c.9.2 2.5.2 3.5 0 .9-.3.1-.5-1.8-.5s-2.7.2-1.7.5m31.5 0c1.2.2 3 .2 4 0 .9-.3-.1-.5-2.3-.4-2.2 0-3 .2-1.7.4m21 0c2.3.2 5.9.2 8 0 2-.2.1-.4-4.3-.4s-6.1.2-3.7.4m31.5 0c.9.2 2.5.2 3.5 0 .9-.3.1-.5-1.8-.5s-2.7.2-1.7.5m19 0c.9.2 2.5.2 3.5 0 .9-.3.1-.5-1.8-.5s-2.7.2-1.7.5m30.5 0c1.2.2 3.2.2 4.5 0 1.2-.2.2-.4-2.3-.4s-3.5.2-2.2.4m121 0c1.2.2 3 .2 4 0 .9-.3-.1-.5-2.3-.4-2.2 0-3 .2-1.7.4m26.5 0c1.5.2 3.7.2 5 0 1.2-.2 0-.4-2.8-.4-2.7 0-3.8.2-2.2.4m118.5 0c2.3.2 6.1.2 8.5 0 2.3-.2.4-.4-4.3-.4s-6.6.2-4.2.4m32 0c1.2.2 3 .2 4 0 .9-.3-.1-.5-2.3-.4-2.2 0-3 .2-1.7.4m26.5 0c1.5.2 3.7.2 5 0 1.2-.2 0-.4-2.8-.4-2.7 0-3.8.2-2.2.4m30.5 0c1.2.2 3 .2 4 0 .9-.3-.1-.5-2.3-.4-2.2 0-3 .2-1.7.4"/><path fill="#404040" fill-opacity=".1" d="M994.1 684.6c0 1.1.3 1.4.6.6.3-.7.2-1.6-.1-1.9-.3-.4-.6.2-.5 1.3m-287.8 30.1c.9.2 2.3.2 3 0 .6-.3-.1-.5-1.8-.5-1.6 0-2.2.2-1.2.5m-83.7 18c-.6 1.4-.5 1.5.5.6.7-.7 1-1.5.7-1.8s-.9.2-1.2 1.2m354 0c-.6 1.4-.5 1.5.5.6.7-.7 1-1.5.7-1.8s-.9.2-1.2 1.2"/><path fill-opacity=".4" d="M656 683.4c0 .2.7.7 1.6 1 .8.3 1.2.2.9-.4-.6-1-2.5-1.4-2.5-.6m293.5.7c-.4.6-.5 1.2-.2 1.5.2.3.7-.2 1-1.1.7-1.7.1-2-.8-.4m-86.7 11.6c.7.3 1.6.2 1.9-.1.4-.3-.2-.6-1.3-.5-1.1 0-1.4.3-.6.6m-145 9c1.2.2 3 .2 4 0 .9-.3-.1-.5-2.3-.4-2.2 0-3 .2-1.7.4M460.2 708c0 1.9.2 2.7.5 1.7.2-.9.2-2.5 0-3.5-.3-.9-.5-.1-.5 1.8m247.1 5.7c.9.2 2.3.2 3 0 .6-.3-.1-.5-1.8-.5-1.6 0-2.2.2-1.2.5m-85.7 18c-.6 1.4-.5 1.5.5.6.7-.7 1-1.5.7-1.8s-.9.2-1.2 1.2M487 732c-.9.6-1 1-.3 1 .6 0 1.5-.5 1.8-1 .8-1.2.4-1.2-1.5 0m84 0c-.9.6-1 1-.3 1 .6 0 1.5-.5 1.8-1 .8-1.2.4-1.2-1.5 0m-124.7.7c.9.2 2.5.2 3.5 0 .9-.3.1-.5-1.8-.5s-2.7.2-1.7.5m255.5 0c.7.3 1.6.2 1.9-.1.4-.3-.2-.6-1.3-.5-1.1 0-1.4.3-.6.6m94.5 0c.9.2 2.5.2 3.5 0 .9-.3.1-.5-1.8-.5s-2.7.2-1.7.5m58.5 0c.7.3 1.6.2 1.9-.1.4-.3-.2-.6-1.3-.5-1.1 0-1.4.3-.6.6"/><path fill-opacity=".6" d="M584.8 683.7c.7.3 1.6.2 1.9-.1.4-.3-.2-.6-1.3-.5-1.1 0-1.4.3-.6.6m-97.8.7c0 .2.7.7 1.6 1 .8.3 1.2.2.9-.4-.6-1-2.5-1.4-2.5-.6m85 10.9.5 11.2.3-10.4c.1-5.7-.1-10.8-.5-11.2-.4-.5-.6 4.2-.3 10.4m303.4-10c-.2.7-.3 8.2-.2 16.7l.3 15.5.5-16.8c.3-9.2.4-16.7.2-16.7-.1 0-.5.6-.8 1.3m25.2 0c.3 1 .9 1.5 1.2 1.2s0-1.1-.7-1.8c-1-.9-1.1-.8-.5.6m49.9-.3c-.6.9 1.1 5 2.1 5 .2 0 0-.9-.6-2s-.8-2.5-.5-3c.3-.6.4-1 .1-1s-.8.4-1.1 1m40.1.5c.4.8.8 1.5 1 1.5s.4-.7.4-1.5-.4-1.5-1-1.5c-.5 0-.7.7-.4 1.5M612.4 698c0 6.9.1 9.7.3 6.2.2-3.4.2-9 0-12.5-.2-3.4-.3-.6-.3 6.3m19 10c0 12.4.2 17.4.3 11.2.2-6.1.2-16.3 0-22.5-.1-6.1-.3-1.1-.3 11.3m129.7-19.5c.9 1.1 2.1 2.9 2.7 4s1.2 1.4 1.2.8c0-.7-1.2-2.5-2.7-4.1-1.6-1.5-2.1-1.9-1.2-.7m25.4-1.5c-.3.6.1.7.9.4 1.8-.7 2.1-1.4.7-1.4-.6 0-1.3.4-1.6 1m53.9.6c-1.8 1.4-1.8 1.4.6.3 3.1-1.4 3.6-1.9 2.4-1.9-.6 0-1.9.7-3 1.6m25.8.6c.7 1.5 1.5 2.3 1.7 1.7s-.4-1.8-1.3-2.7c-1.5-1.5-1.5-1.5-.4 1m71.8.3c1.3 1.4 2.6 2.5 2.8 2.5.3 0-.5-1.1-1.8-2.5s-2.6-2.5-2.8-2.5c-.3 0 .5 1.1 1.8 2.5M462.5 690c1 1.1 2 2 2.3 2s-.3-.9-1.3-2-2-2-2.3-2 .3.9 1.3 2m75.9 8c0 5.8.1 8.1.3 5.2.2-2.8.2-7.6 0-10.5-.2-2.8-.3-.5-.3 5.3m149-6.8-2.9 3.3 3.3-2.9c3-2.8 3.7-3.6 2.9-3.6-.2 0-1.6 1.5-3.3 3.2m-257.5.5-2.4 2.8 2.8-2.4c2.5-2.3 3.2-3.1 2.4-3.1-.2 0-1.4 1.2-2.8 2.7m385.1-.2c1.3 1.4 2.6 2.5 2.8 2.5.3 0-.5-1.1-1.8-2.5s-2.6-2.5-2.8-2.5c-.3 0 .5 1.1 1.8 2.5m18.9 1.2-3.4 3.8 3.8-3.4c2-1.9 3.7-3.6 3.7-3.8 0-.8-.8 0-4.1 3.4m66.7-2c-.6 1.4-.5 1.5.5.6.7-.7 1-1.5.7-1.8s-.9.2-1.2 1.2m-422.4 19.5c-.1 11.4.1 20.9.6 21.1.4.3.6-5.9.4-13.6-.4-25.8-.8-28.5-1-7.5m268.6-18.5c.7.3 1.6.2 1.9-.1.4-.3-.2-.6-1.3-.5-1.1 0-1.4.3-.6.6m118.7 1.2c-.6.5-1.9 1.1-3 1.4-1.9.4-1.9.5.1.6 1.2 0 2.7-.6 3.4-1.4 1.4-1.6 1-2-.5-.6m-419.7.8c1.2.2 3 .2 4 0 .9-.3-.1-.5-2.3-.4-2.2 0-3 .2-1.7.4m261 0c.7.3 1.6.2 1.9-.1.4-.3-.2-.6-1.3-.5-1.1 0-1.4.3-.6.6m89.5 0c.9.2 2.5.2 3.5 0 .9-.3.1-.5-1.8-.5s-2.7.2-1.7.5m57.5 0c.6.2 1.8.2 2.5 0 .6-.3.1-.5-1.3-.5s-1.9.2-1.2.5M456.5 697c1 1.1 2 2 2.3 2s-.3-.9-1.3-2-2-2-2.3-2 .3.9 1.3 2m227-.9c-.4.6-.5 1.2-.2 1.5.2.3.7-.2 1-1.1.7-1.7.1-2-.8-.4m32.5-.1c-.9.6-1 1-.3 1 .6 0 1.5-.5 1.8-1 .8-1.2.4-1.2-1.5 0m-247.4 1.3c.3 1 .9 1.5 1.2 1.2s0-1.1-.7-1.8c-1-.9-1.1-.8-.5.6m172.5.3c0 1.1.3 1.4.6.6.3-.7.2-1.6-.1-1.9-.3-.4-.6.2-.5 1.3m146.8.1c-1.3 1.6-1.2 1.7.4.4.9-.7 1.7-1.5 1.7-1.7 0-.8-.8-.3-2.1 1.3m-206.7 16c-.1 9.4.1 17.4.6 17.6.4.3.6-4.7.4-11.1-.4-21.6-.8-23.8-1-6.5m100-10.7c0 1.4.2 1.9.5 1.2.2-.6.2-1.8 0-2.5-.3-.6-.5-.1-.5 1.3m82.4.7c-.6 1.4-.5 1.5.5.6.7-.7 1-1.5.7-1.8s-.9.2-1.2 1.2m10.6.3c0 1.4.2 1.9.5 1.2.2-.6.2-1.8 0-2.5-.3-.6-.5-.1-.5 1.3m-339.9 4c0 3 .2 4.3.4 2.7.2-1.5.2-3.9 0-5.5-.2-1.5-.4-.2-.4 2.8m403.8-3.4c0 1.1.3 1.4.6.6.3-.7.2-1.6-.1-1.9-.3-.4-.6.2-.5 1.3M471.3 708c0 2.5.2 3.5.4 2.2.2-1.2.2-3.2 0-4.5-.2-1.2-.4-.2-.4 2.3m19.7-3.6c0 .2.8 1 1.8 1.7 1.5 1.3 1.6 1.2.3-.4s-2.1-2.1-2.1-1.3m19.3 3.1c0 2.2.2 3 .4 1.7.2-1.2.2-3 0-4-.3-.9-.5.1-.4 2.3m80.1 6c0 5.5.1 7.6.3 4.7s.2-7.4 0-10-.3-.2-.3 5.3m3.6-9.1c0 .2.8 1 1.8 1.7 1.5 1.3 1.6 1.2.3-.4s-2.1-2.1-2.1-1.3m97.3 3.6c0 2.5.2 3.5.4 2.2.2-1.2.2-3.2 0-4.5-.2-1.2-.4-.2-.4 2.3m31.7-2.6c0 .2.7.7 1.6 1 .8.3 1.2.2.9-.4-.6-1-2.5-1.4-2.5-.6m61.2 2.6c0 1.9.2 2.7.5 1.7.2-.9.2-2.5 0-3.5-.3-.9-.5-.1-.5 1.8m37.9-.4c0 1.1.3 1.4.6.6.3-.7.2-1.6-.1-1.9-.3-.4-.6.2-.5 1.3M655 709c-.9.6-1 1-.3 1 .6 0 1.5-.5 1.8-1 .8-1.2.4-1.2-1.5 0m-116.7 6.5c0 3.3.2 4.5.4 2.7s.2-4.5 0-6-.4 0-.4 3.3m235.9-3.5c0 1.4.2 1.9.5 1.2.2-.6.2-1.8 0-2.5-.3-.6-.5-.1-.5 1.3m-93 1c0 1.4.2 1.9.5 1.2.2-.6.2-1.8 0-2.5-.3-.6-.5-.1-.5 1.3m-39.9 3.5c0 2.7.2 3.8.4 2.2.2-1.5.2-3.7 0-5-.2-1.2-.4 0-.4 2.8m324.9 4.7c-.1 5.3.1 9.9.6 10.1.4.3.6-2.7.4-6.6-.4-12.2-.9-13.6-1-3.5m-542.1-6.6c0 1.1.3 1.4.6.6.3-.7.2-1.6-.1-1.9-.3-.4-.6.2-.5 1.3m35.5.1c-.6 1.4-.5 1.5.5.6.7-.7 1-1.5.7-1.8s-.9.2-1.2 1.2m255.1.4c.4 1.3.8 1.8 1.1 1 .2-.7-.1-1.8-.6-2.3-.8-.8-.9-.4-.5 1.3m124.3-1.2c0 .6.4 1.3 1 1.6s.7-.1.4-.9c-.7-1.8-1.4-2.1-1.4-.7m-369.4 2.6c-.9 2.6-.7 3.2.5 1.2.6-1 .9-2.1.6-2.3-.2-.3-.7.2-1.1 1.1m464.4-1.1c0 .2.8 1 1.8 1.7 1.5 1.3 1.6 1.2.3-.4s-2.1-2.1-2.1-1.3m-445.7 4.1c0 2.2.2 3 .4 1.7.2-1.2.2-3 0-4-.3-.9-.5.1-.4 2.3m204.7-3.1c0 .2.8 1 1.8 1.7 1.5 1.3 1.6 1.2.3-.4s-2.1-2.1-2.1-1.3m94.5 1.6c1 1.1 2 2 2.3 2s-.3-.9-1.3-2-2-2-2.3-2 .3.9 1.3 2m-330.6.7c-1.3 1.6-1.2 1.7.4.4.9-.7 1.7-1.5 1.7-1.7 0-.8-.8-.3-2.1 1.3m468.1-.3c0 .2.8 1 1.8 1.7 1.5 1.3 1.6 1.2.3-.4s-2.1-2.1-2.1-1.3m-95 1c0 .2.8 1 1.8 1.7 1.5 1.3 1.6 1.2.3-.4s-2.1-2.1-2.1-1.3m45.1 5.3c0 3.4.2 6.4.7 6.6.4.3.6-1.6.4-4.1-.5-8-.9-9-1.1-2.5M762.5 722c1 1.1 2 2 2.3 2s-.3-.9-1.3-2-2-2-2.3-2 .3.9 1.3 2m177 0c1 1.1 2 2 2.3 2s-.3-.9-1.3-2-2-2-2.3-2 .3.9 1.3 2m-492.7.7c.6.2 1.8.2 2.5 0 .6-.3.1-.5-1.3-.5s-1.9.2-1.2.5m115.5 3.3c0 2.5.2 3.5.4 2.2.2-1.2.2-3.2 0-4.5-.2-1.2-.4-.2-.4 2.3m10-.5c0 2.2.2 3 .4 1.7.2-1.2.2-3 0-4-.3-.9-.5.1-.4 2.3m130.5-2.8c1.2.2 3.2.2 4.5 0 1.2-.2.2-.4-2.3-.4s-3.5.2-2.2.4m95 0c.7.3 1.6.2 1.9-.1.4-.3-.2-.6-1.3-.5-1.1 0-1.4.3-.6.6m18.1 1c-1.3 1.6-1.2 1.7.4.4.9-.7 1.7-1.5 1.7-1.7 0-.8-.8-.3-2.1 1.3m-351 1c-1.3 1.6-1.2 1.7.4.4s2.1-2.1 1.3-2.1c-.2 0-1 .8-1.7 1.7m316.1.8c1.3 1.4 2.6 2.5 2.8 2.5.3 0-.5-1.1-1.8-2.5s-2.6-2.5-2.8-2.5c-.3 0 .5 1.1 1.8 2.5m148-2.1c0 .2.8 1 1.8 1.7 1.5 1.3 1.6 1.2.3-.4s-2.1-2.1-2.1-1.3m-28.4 1.9c.3 1 .9 1.5 1.2 1.2s0-1.1-.7-1.8c-1-.9-1.1-.8-.5.6m-34.4 2.5c-1.1 2.5-1.1 2.5.4 1 .9-.9 1.5-2.1 1.3-2.7s-1 .2-1.7 1.7m-311 .2c0 1.4.2 1.9.5 1.2.2-.6.2-1.8 0-2.5-.3-.6-.5-.1-.5 1.3m102.9-.5c0 1.2-.5 2.6-1.1 3.3-.5.7-.3.6.6-.2.9-.7 1.4-2.2 1.1-3.2-.4-1.7-.5-1.7-.6.1m-152.1-.1c0 .2.8 1 1.8 1.7 1.5 1.3 1.6 1.2.3-.4s-2.1-2.1-2.1-1.3m251 2.1c1.3 1.4 2.6 2.5 2.8 2.5.3 0-.5-1.1-1.8-2.5s-2.6-2.5-2.8-2.5c-.3 0 .5 1.1 1.8 2.5m177 0c1.3 1.4 2.6 2.5 2.8 2.5.3 0-.5-1.1-1.8-2.5s-2.6-2.5-2.8-2.5c-.3 0 .5 1.1 1.8 2.5m11.7.6c.4 1.3.8 1.8 1.1 1 .2-.7-.1-1.8-.6-2.3-.8-.8-.9-.4-.5 1.3m-335.7-.7c0 .2.8 1 1.8 1.7 1.5 1.3 1.6 1.2.3-.4s-2.1-2.1-2.1-1.3m131.6 1.3c-.6 1.4-.5 1.5.5.6.7-.7 1-1.5.7-1.8s-.9.2-1.2 1.2m-302.8 0c.7.3 1.6.2 1.9-.1.4-.3-.2-.6-1.3-.5-1.1 0-1.4.3-.6.6m329.7.3c-.3.5-.1 1 .4 1 .6 0 1.1-.5 1.1-1 0-.6-.2-1-.4-1-.3 0-.8.4-1.1 1m-324.2.7c.9.2 2.3.2 3 0 .6-.3-.1-.5-1.8-.5-1.6 0-2.2.2-1.2.5m5.5 0c.7.3 1.6.2 1.9-.1.4-.3-.2-.6-1.3-.5-1.1 0-1.4.3-.6.6m250 0c.6.2 1.8.2 2.5 0 .6-.3.1-.5-1.3-.5s-1.9.2-1.2.5m95 0c.6.2 1.8.2 2.5 0 .6-.3.1-.5-1.3-.5s-1.9.2-1.2.5m6 0c.7.3 1.6.2 1.9-.1.4-.3-.2-.6-1.3-.5-1.1 0-1.4.3-.6.6m48 0c.7.3 1.6.2 1.9-.1.4-.3-.2-.6-1.3-.5-1.1 0-1.4.3-.6.6m8 0c.7.3 1.6.2 1.9-.1.4-.3-.2-.6-1.3-.5-1.1 0-1.4.3-.6.6m-310 1c1.2.2 3 .2 4 0 .9-.3-.1-.5-2.3-.4-2.2 0-3 .2-1.7.4m103.5 0c.9.2 2.3.2 3 0 .6-.3-.1-.5-1.8-.5-1.6 0-2.2.2-1.2.5m244 0c.9.2 2.3.2 3 0 .6-.3-.1-.5-1.8-.5-1.6 0-2.2.2-1.2.5"/><path fill="gray" fill-opacity=".4" d="M579.3 689.5c0 2.2.2 3 .4 1.7.2-1.2.2-3 0-4-.3-.9-.5.1-.4 2.3m348.5 5.1c1.2.8 2.3 2.7 2.3 4.2.2 2.5.2 2.5.6.4.5-2.4-2.1-6.2-4.1-6.2-.6 0 0 .7 1.2 1.6m-6.5 3.4c0 2.5.2 3.5.4 2.2.2-1.2.2-3.2 0-4.5-.2-1.2-.4-.2-.4 2.3m-271.5 1.7c.6.2 1.8.2 2.5 0 .6-.3.1-.5-1.3-.5s-1.9.2-1.2.5m8.4 5.3c0 1.9.2 2.7.5 1.7.2-.9.2-2.5 0-3.5-.3-.9-.5-.1-.5 1.8m-168.7 1.1c-.4.6-.4 1.3-.1 1.6.3.4.6.1.6-.6s.5-.9 1.2-.5.8.3.4-.4c-.9-1.5-1.3-1.5-2.1-.1m17.2 4c.7.7 1.5 1 1.8.7s-.2-.9-1.2-1.2c-1.4-.6-1.5-.5-.6.5m414.3 6.3c0 .2.7.7 1.6 1 .8.3 1.2.2.9-.4-.6-1-2.5-1.4-2.5-.6m-359.9 11.2c0 1.1.3 1.4.6.6.3-.7.2-1.6-.1-1.9-.3-.4-.6.2-.5 1.3"/><path fill="#404040" fill-opacity=".6" d="M528.3 691.5c0 3.3.2 4.5.4 2.7s.2-4.5 0-6-.4 0-.4 3.3m51.9-2c0 1.6.2 2.2.5 1.2.2-.9.2-2.3 0-3-.3-.6-.5.1-.5 1.8m68.1 3.2c1.5.2 3.7.2 5 0 1.2-.2 0-.4-2.8-.4-2.7 0-3.8.2-2.2.4m249.5 0c.7.3 1.6.2 1.9-.1.4-.3-.2-.6-1.3-.5-1.1 0-1.4.3-.6.6m22.6.7c-.3.8-.4 3.1-.2 5.2.3 3.6.4 3.5.8-1.4.5-5.3.4-6.3-.6-3.8m-216.6.3c.7.3 1.6.2 1.9-.1.4-.3-.2-.6-1.3-.5-1.1 0-1.4.3-.6.6m227.3 5c0 2-.9 3.7-2.3 4.7-1.2.9-1.8 1.6-1.2 1.6 2.2 0 4.6-3.8 4.1-6.7-.4-2.8-.4-2.8-.6.4m-411-.1c0 1.1.3 1.4.6.6.3-.7.2-1.6-.1-1.9-.3-.4-.6.2-.5 1.3m129.7 2.1c.6.2 1.8.2 2.5 0 .6-.3.1-.5-1.3-.5s-1.9.2-1.2.5m7.4 3.8c0 1.6.2 2.2.5 1.2.2-.9.2-2.3 0-3-.3-.6-.5.1-.5 1.8m-65.4-.8c.7.3 1.6.2 1.9-.1.4-.3-.2-.6-1.3-.5-1.1 0-1.4.3-.6.6m-63.4 16.8c0 6 .1 8.4.3 5.2s.2-8.1 0-11-.3-.3-.3 5.8m79.6-10.1c0 .2.8 1 1.8 1.7 1.5 1.3 1.6 1.2.3-.4s-2.1-2.1-2.1-1.3m-88.7 10.1c0 2.7.2 3.8.4 2.2.2-1.5.2-3.7 0-5-.2-1.2-.4 0-.4 2.8m366.6 1.7c1 1.4 2.7 1.8 7.5 1.6l6.1-.2-6-.3c-3.2-.2-6.6-.9-7.5-1.6-1.3-1.1-1.3-1-.1.5m-341.1 1.5c1.8.2 4.5.2 6 0s0-.4-3.3-.4-4.5.2-2.7.4m102 0c1.7.2 4.7.2 6.5 0 1.7-.2.3-.4-3.3-.4s-5 .2-3.2.4"/><path fill-opacity=".7" d="M445.8 684.7c1.2.2 3 .2 4 0 .9-.3-.1-.5-2.3-.4-2.2 0-3 .2-1.7.4m34.4.5c-.8.8-1.1 4.1-1 9.2l.2 8.1.5-8.5.6-8.5 3.5-.6c3.5-.6 3.5-.6.5-.8-1.7 0-3.6.4-4.3 1.1m31 0c-.8.8-1.1 4.3-1 10.2l.2 9.1.5-9.5.6-9.5 3.5-.6c3.5-.6 3.5-.6.5-.8-1.7 0-3.6.4-4.3 1.1m18.3-.1c-.4.6-.4 1.3-.1 1.6.3.4.6.1.6-.6 0-.9 1.2-1.2 3.9-.9 2.2.2 3.7 0 3.5-.4-.8-1.2-7.2-1-7.9.3m35.5-.7c0 .2 1.5.6 3.4.8s3.2 0 3-.4c-.5-.8-6.4-1.2-6.4-.4m19.8.3c1.2.2 3 .2 4 0 .9-.3-.1-.5-2.3-.4-2.2 0-3 .2-1.7.4m30.2-.3c0 .2 1.5.6 3.4.8s3.2 0 3-.4c-.5-.8-6.4-1.2-6.4-.4m17.7.3c-.3.5 4.9.8 11.6.8 12.1 0 12.1 0 12.8 2.5.6 2.1.7 2.2.8.4.2-3.8-1.7-4.4-13.5-4.4-6.2 0-11.5.3-11.7.7m69.1 0c1.2.2 3 .2 4 0 .9-.3-.1-.5-2.3-.4-2.2 0-3 .2-1.7.4m37.5 0c2.6.2 6.8.2 9.5 0 2.6-.2.4-.3-4.8-.3s-7.4.1-4.7.3m57.5 0c1.2.2 3 .2 4 0 .9-.3-.1-.5-2.3-.4-2.2 0-3 .2-1.7.4m55 0c1.2.2 3.2.2 4.5 0 1.2-.2.2-.4-2.3-.4s-3.5.2-2.2.4m24.9 0c-.3.5 5 .8 11.8.8s12.1-.3 11.8-.8c-.2-.4-5.5-.7-11.8-.7s-11.6.3-11.8.7m39.1 0c2.9.2 7.4.2 10 0s.2-.3-5.3-.3-7.6.1-4.7.3m35.7.4c-.4.6-.4 1.3-.1 1.6.3.4.6 0 .6-.7 0-.9 1.2-1.1 4.6-.7 2.9.3 4.1.1 3.3-.4-2-1.2-7.6-1.1-8.4.2m31.5-.7c0 .2 1.8.6 3.9.8 2.2.2 3.7 0 3.5-.4-.5-.8-7.4-1.1-7.4-.4m-530.2 1.3c.7.3 1.6.2 1.9-.1.4-.3-.2-.6-1.3-.5-1.1 0-1.4.3-.6.6m339 0c.7.3 1.6.2 1.9-.1.4-.3-.2-.6-1.3-.5-1.1 0-1.4.3-.6.6m55 0c.7.3 1.6.2 1.9-.1.4-.3-.2-.6-1.3-.5-1.1 0-1.4.3-.6.6m13 0c.7.3 1.6.2 1.9-.1.4-.3-.2-.6-1.3-.5-1.1 0-1.4.3-.6.6m-296.4 18.8c0 10.4.2 14.6.3 9.2.2-5.4.2-13.9 0-19-.1-5.1-.3-.7-.3 9.8M693.5 687c-.3.6.1.7.9.4 1.8-.7 2.1-1.4.7-1.4-.6 0-1.3.4-1.6 1m39.9 17c0 10.2.2 14.3.3 9.2.2-5 .2-13.4 0-18.5-.1-5-.3-.9-.3 9.3m23.7-17.8c.2.2 1.8 1.4 3.4 2.8l3 2.5-2.4-2.8c-1.4-1.5-2.9-2.7-3.4-2.7-.6 0-.8.1-.6.2m106 .1c.2.1 1.3.9 2.4 1.7 1.9 1.4 1.9 1.4.6-.3-.7-.9-1.8-1.7-2.4-1.7q-.9 0-.6.3m47.3 10.7c0 6.3.1 8.9.3 5.7.2-3.1.2-8.3 0-11.5-.2-3.1-.3-.5-.3 5.8m23.6-10.6c0 .2.7.7 1.6 1 .8.3 1.2.2.9-.4-.6-1-2.5-1.4-2.5-.6m-442.5 4c1 1.4 1.9 2.6 2.2 2.6.7 0-1.7-3.9-2.8-4.6-.6-.3-.3.5.6 2m89.8 2.1c0 2.7.2 3.8.4 2.2.2-1.5.2-3.7 0-5-.2-1.2-.4 0-.4 2.8m106.6-.8-3.4 3.8 3.8-3.4c3.4-3.3 4.2-4.1 3.4-4.1-.2 0-1.9 1.7-3.8 3.7m30-2.5c.7 1 1.1 2.7.8 3.8s-.1 1.8.4 1.4c1.5-.9 1-4.1-.8-5.5-1.6-1.3-1.7-1.2-.4.3m96.7 2.8c1.7 1.9 3.6 4.4 4.2 5.5s1.2 1.4 1.2.7-1.9-3.2-4.2-5.6q-4.35-4.2-1.2-.6m139.1-.9c1 1.7 2.4 3.6 3.2 4.2.8.7.2-.7-1.4-3.1-3.2-4.9-4.5-5.7-1.8-1.1m-523.3 1.1-2.9 3.3 3.3-2.9c3-2.8 3.7-3.6 2.9-3.6-.2 0-1.6 1.5-3.3 3.2m406.5-1.5c-1.3 1.6-1.2 1.7.4.4.9-.7 1.7-1.5 1.7-1.7 0-.8-.8-.3-2.1 1.3m102.2 0c.7 1.2 1.5 2 1.8 1.7.3-.2-.3-1.2-1.3-2.2-1.7-1.6-1.8-1.6-.5.5m-158.7 1.5-1.9 2.3 2.3-1.9c2.1-1.8 2.7-2.6 1.9-2.6-.2 0-1.2 1-2.3 2.2m84.7.1c-1.3 2.1-1.2 2.1.5.5 1-1 1.6-2 1.3-2.2-.3-.3-1.1.5-1.8 1.7m55.5-.5c-.2.4 1.1.6 3 .4s3.4-.6 3.4-.8c0-.8-5.9-.4-6.4.4m-168.6.6c0 .2.8 1 1.8 1.7 1.5 1.3 1.6 1.2.3-.4s-2.1-2.1-2.1-1.3m-9.7 6.1c0 3.3.2 4.5.4 2.7s.2-4.5 0-6-.4 0-.4 3.3m58.7-5.1c0 .2.9.6 2 .9s1.8.1 1.4-.4c-.5-.9-3.4-1.3-3.4-.5m49.8.3c.7.3 1.6.2 1.9-.1.4-.3-.2-.6-1.3-.5-1.1 0-1.4.3-.6.6m7 0c.7.3 1.6.2 1.9-.1.4-.3-.2-.6-1.3-.5-1.1 0-1.4.3-.6.6m72.8.6c.3 1 .9 1.5 1.2 1.2s0-1.1-.7-1.8c-1-.9-1.1-.8-.5.6m-235.7 2.4-2.4 2.8 2.8-2.4c1.5-1.4 2.7-2.6 2.7-2.8 0-.8-.8-.1-3.1 2.4m69.4 1.3c0 2.5.2 3.5.4 2.2.2-1.2.2-3.2 0-4.5-.2-1.2-.4-.2-.4 2.3m67.6-2.3c-1.3 1.6-1.2 1.7.4.4.9-.7 1.7-1.5 1.7-1.7 0-.8-.8-.3-2.1 1.3m109.4 2.3c0 2.5.2 3.5.4 2.2.2-1.2.2-3.2 0-4.5-.2-1.2-.4-.2-.4 2.3m-503.9-.8-1.9 2.3 2.3-1.9c1.2-1.1 2.2-2.1 2.2-2.3 0-.8-.8-.2-2.6 1.9m18.6-1.8c0 .2.8 1 1.8 1.7 1.5 1.3 1.6 1.2.3-.4s-2.1-2.1-2.1-1.3m321 1.7c-.7 1.1-1 2.3-.7 2.5.2.2.9-.7 1.5-2.1 1.4-3 .7-3.3-.8-.4m30.5-.1c1 1.1 2 2 2.3 2s-.3-.9-1.3-2-2-2-2.3-2 .3.9 1.3 2m111.7 0c0 1.4.2 1.9.5 1.2.2-.6.2-1.8 0-2.5-.3-.6-.5-.1-.5 1.3M426 698.1c-.7 1.1-1 2.3-.7 2.5.2.2.9-.7 1.5-2.1 1.4-3 .7-3.3-.8-.4M571 713l-.5 17.5-2.9.3c-1.6.2-3.3-.2-3.8-1-.8-1-.9-1-.5.2.5 2 6 2.5 7.6.7.8-1 1.1-6.4.9-18.3l-.3-16.9zm183.9-13.8c-.3 2.2-.1 3.4.4 2.9s.7-2.1.5-3.7c-.3-2.7-.4-2.6-.9.8m86-.5-2.4 2.8 2.8-2.4c1.5-1.4 2.7-2.6 2.7-2.8 0-.8-.8-.1-3.1 2.4m132-1c-1.3 1.6-1.2 1.7.4.4.9-.7 1.7-1.5 1.7-1.7 0-.8-.8-.3-2.1 1.3m-40.8.9c0 1.1.3 1.4.6.6.3-.7.2-1.6-.1-1.9-.3-.4-.6.2-.5 1.3m49.8 1.1c-1.3 1.6-1.2 1.7.4.4s2.1-2.1 1.3-2.1c-.2 0-1 .8-1.7 1.7m-522.3.6c.3 1 .9 1.5 1.2 1.2s0-1.1-.7-1.8c-1-.9-1.1-.8-.5.6m10.5 2.3c0 1.1.3 1.4.6.6.3-.7.2-1.6-.1-1.9-.3-.4-.6.2-.5 1.3m183.9-1.2c0 .2.7.7 1.6 1 .8.3 1.2.2.9-.4-.6-1-2.5-1.4-2.5-.6m245.5 3.6c0 2.1.3 3.6.8 3.3.4-.2.7-1.7.7-3.3s-.3-3.1-.7-3.3c-.5-.3-.8 1.2-.8 3.3m-475.2 3c0 3 .2 4.3.4 2.7.2-1.5.2-3.9 0-5.5-.2-1.5-.4-.2-.4 2.8m37 0c0 3 .2 4.3.4 2.7.2-1.5.2-3.9 0-5.5-.2-1.5-.4-.2-.4 2.8m132.7-4.6c0 .2.8 1 1.8 1.7 1.5 1.3 1.6 1.2.3-.4s-2.1-2.1-2.1-1.3m234.3 5.1c0 3.3.2 4.5.4 2.7s.2-4.5 0-6-.4 0-.4 3.3m111.3-3.8c-.6 1.4-.5 1.5.5.6.7-.7 1-1.5.7-1.8s-.9.2-1.2 1.2m-452.1.5c-.3.7-.6 6.7-.7 13.3l-.3 12h-3.7c-2 0-3.4.3-3.1.7.7 1.3 6 .9 7.1-.5.9-1.1 2.3-26.7 1.4-26.7-.1 0-.5.6-.7 1.2m333.6.4c0 1.1.3 1.4.6.6.3-.7.2-1.6-.1-1.9-.3-.4-.6.2-.5 1.3M681.2 708c0 1.9.2 2.7.5 1.7.2-.9.2-2.5 0-3.5-.3-.9-.5-.1-.5 1.8m29.6-2.3c2.3.2 6.1.2 8.5 0 2.3-.2.4-.4-4.3-.4s-6.6.2-4.2.4m126.4 2.3c0 1.9.2 2.7.5 1.7.2-.9.2-2.5 0-3.5-.3-.9-.5-.1-.5 1.8m-181.6-.3c-.6 1.4-.5 1.5.5.6.7-.7 1-1.5.7-1.8s-.9.2-1.2 1.2m69.4 3.6.5 5.2.3-4.4c.2-2.4 0-4.7-.5-5.2-.4-.4-.6 1.5-.3 4.4m20.8-4.6c.7.3 1.6.2 1.9-.1.4-.3-.2-.6-1.3-.5-1.1 0-1.4.3-.6.6m28.4 1.3c0 1.4.2 1.9.5 1.2.2-.6.2-1.8 0-2.5-.3-.6-.5-.1-.5 1.3m-68.8 2c.1 1.6.7 2.5 1.9 2.6q1.65.15.3-.3c-.8-.2-1.7-1.4-1.9-2.6-.3-1.8-.4-1.8-.3.3m260.3.1c.4 1.3.8 1.8 1.1 1 .2-.7-.1-1.8-.6-2.3-.8-.8-.9-.4-.5 1.3m-318.4-.4c1.5.2 3.7.2 5 0 1.2-.2 0-.4-2.8-.4-2.7 0-3.8.2-2.2.4m109.1 1.5-1.9 2.3 2.3-1.9c2.1-1.8 2.7-2.6 1.9-2.6-.2 0-1.2 1-2.3 2.2m64.7-.6c0 1.1.3 1.4.6.6.3-.7.2-1.6-.1-1.9-.3-.4-.6.2-.5 1.3m63.9-.1c-1.9 2.2-.8 2.5 1.3.3.9-1 1.3-1.8.8-1.8s-1.4.7-2.1 1.5m6.8-.8c1.2.2 3 .2 4 0 .9-.3-.1-.5-2.3-.4-2.2 0-3 .2-1.7.4m18.5 4.8c0 3.3.2 4.5.4 2.7s.2-4.5 0-6-.4 0-.4 3.3M607 710.4c0 .2.8 1 1.8 1.7 1.5 1.3 1.6 1.2.3-.4s-2.1-2.1-2.1-1.3m325.9 1.3c-1.3 1.6-1.2 1.7.4.4.9-.7 1.7-1.5 1.7-1.7 0-.8-.8-.3-2.1 1.3m-148.8.9c0 1.1.3 1.4.6.6.3-.7.2-1.6-.1-1.9-.3-.4-.6.2-.5 1.3m27 0c0 1.1.3 1.4.6.6.3-.7.2-1.6-.1-1.9-.3-.4-.6.2-.5 1.3m-341 1c0 1.1.3 1.4.6.6.3-.7.2-1.6-.1-1.9-.3-.4-.6.2-.5 1.3m505.1.9c0 1.6.2 2.2.5 1.2.2-.9.2-2.3 0-3-.3-.6-.5.1-.5 1.8m-232.9 1c-.3.9-.3 1.8-.1 2.1.3.3.8-.4 1.1-1.6.6-2.3-.1-2.7-1-.5m98.7 2c1.3 1.4 2.6 2.5 2.8 2.5.3 0-.5-1.1-1.8-2.5s-2.6-2.5-2.8-2.5c-.3 0 .5 1.1 1.8 2.5m-82.5.5c1 1.1 2 2 2.3 2s-.3-.9-1.3-2-2-2-2.3-2 .3.9 1.3 2m160.7 4.8c-.2 6.5-.4 7.4-2.4 8.2-1.6.6-1.8.9-.7.9 3 .2 4-2.4 3.6-9.6l-.3-6.8zM437.5 719c1 1.1 2 2 2.3 2s-.3-.9-1.3-2-2-2-2.3-2 .3.9 1.3 2m257 0c1 1.1 2 2 2.3 2s-.3-.9-1.3-2-2-2-2.3-2 .3.9 1.3 2m91.5-1.6c0 .2.8 1 1.8 1.7 1.5 1.3 1.6 1.2.3-.4s-2.1-2.1-2.1-1.3m21.4 1.8-1.9 2.3 2.3-1.9c2.1-1.8 2.7-2.6 1.9-2.6-.2 0-1.2 1-2.3 2.2m22.6-1.3c0 .6.4 1.3 1 1.6s.7-.1.4-.9c-.7-1.8-1.4-2.1-1.4-.7m95-.5c0 .2.8 1 1.8 1.7 1.5 1.3 1.6 1.2.3-.4s-2.1-2.1-2.1-1.3m10 0c0 .2.8 1 1.8 1.7 1.5 1.3 1.6 1.2.3-.4s-2.1-2.1-2.1-1.3m-467.4 2.3c-.6 1.4-.5 1.5.5.6.7-.7 1-1.5.7-1.8s-.9.2-1.2 1.2m35.9 2.7c1 1.4 1.9 2.6 2.2 2.6.7 0-1.7-3.9-2.8-4.6-.6-.3-.3.5.6 2m238.8 2.1c0 2.7.2 3.8.4 2.2.2-1.5.2-3.7 0-5-.2-1.2-.4 0-.4 2.8m7.7-4.1c0 .2.8 1 1.8 1.7 1.5 1.3 1.6 1.2.3-.4s-2.1-2.1-2.1-1.3m28 1c0 .2.8 1 1.8 1.7 1.5 1.3 1.6 1.2.3-.4s-2.1-2.1-2.1-1.3m83 0c0 .2 1.1.6 2.5.8 1.3.3 2.2.1 1.9-.3-.5-.9-4.4-1.3-4.4-.5m67 0c0 .2.8 1 1.8 1.7 1.5 1.3 1.6 1.2.3-.4s-2.1-2.1-2.1-1.3m-498 3.1c1.3 1.4 2.6 2.5 2.8 2.5.3 0-.5-1.1-1.8-2.5s-2.6-2.5-2.8-2.5c-.3 0 .5 1.1 1.8 2.5m13.8-1.8c.7.3 1.6.2 1.9-.1.4-.3-.2-.6-1.3-.5-1.1 0-1.4.3-.6.6m7 0c.7.3 1.6.2 1.9-.1.4-.3-.2-.6-1.3-.5-1.1 0-1.4.3-.6.6m13.1 2-2.4 2.8 2.8-2.4c2.5-2.3 3.2-3.1 2.4-3.1-.2 0-1.4 1.2-2.8 2.7m330.9-2c.7.3 1.6.2 1.9-.1.4-.3-.2-.6-1.3-.5-1.1 0-1.4.3-.6.6m6 0c.7.3 1.6.2 1.9-.1.4-.3-.2-.6-1.3-.5-1.1 0-1.4.3-.6.6m33.7 1.3c1 1.1 2 2 2.3 2s-.3-.9-1.3-2-2-2-2.3-2 .3.9 1.3 2m17.8-1.3c1.5.2 3.7.2 5 0 1.2-.2 0-.4-2.8-.4-2.7 0-3.8.2-2.2.4m-262.4 3.8c-.4 3.9-.5 4-4.1 4-2 0-3.4.3-3.1.7.8 1.4 6 .9 7.2-.6.7-.8 1.1-3 .9-4.8-.4-3.3-.4-3.3-.9.7m96.1-3.1c0 .2.8 1 1.8 1.7 1.5 1.3 1.6 1.2.3-.4s-2.1-2.1-2.1-1.3m78.5 1.6c1 1.1 2 2 2.3 2s-.3-.9-1.3-2-2-2-2.3-2 .3.9 1.3 2m177.5.5c1.3 1.4 2.6 2.5 2.8 2.5.3 0-.5-1.1-1.8-2.5s-2.6-2.5-2.8-2.5c-.3 0 .5 1.1 1.8 2.5m-388.8-.1c.7.8 1.5 1.2 1.7 1.1.5-.6-1-2.5-2-2.5-.5 0-.4.6.3 1.4m103.4-.1c.3 1 .9 1.5 1.2 1.2s0-1.1-.7-1.8c-1-.9-1.1-.8-.5.6m97.4.1c0 .2.8 1 1.8 1.7 1.5 1.3 1.6 1.2.3-.4s-2.1-2.1-2.1-1.3m28 0c0 .2.8 1 1.8 1.7 1.5 1.3 1.6 1.2.3-.4s-2.1-2.1-2.1-1.3m-276 1c0 .2.8 1 1.8 1.7 1.5 1.3 1.6 1.2.3-.4s-2.1-2.1-2.1-1.3m426 0c0 .2.8 1 1.8 1.7 1.5 1.3 1.6 1.2.3-.4s-2.1-2.1-2.1-1.3m-496.6 2c1.1.9 2.4 1.6 3 1.6 1.2 0 .7-.5-2.4-1.9-2.4-1.1-2.4-1.1-.6.3m255.6-1c0 .3.9 1 2 1.6s2 .8 2 .6c0-.3-.9-1-2-1.6s-2-.8-2-.6m173.9 1.3c-1.3 1.6-1.2 1.7.4.4.9-.7 1.7-1.5 1.7-1.7 0-.8-.8-.3-2.1 1.3m-253.5 1.1c1.6 1.8 2.8 2.2 6 2 2.2-.2 4.1-.9 4.2-1.6s0-.8-.3-.2c-.8 1.6-7.5 1.1-9.7-.8l-2.1-1.7zM714 729c-.9.6-1 1-.3 1 .6 0 1.5-.5 1.8-1 .8-1.2.4-1.2-1.5 0m94 0c-.9.6-1 1-.3 1 .6 0 1.5-.5 1.8-1 .8-1.2.4-1.2-1.5 0m-254.8 1.6c-.7.8-.8 1.4-.3 1.4 1 0 2.5-1.9 2-2.5-.2-.1-1 .3-1.7 1.1m179.8-.7c0 1 1.9 2.5 2.5 2 .1-.2-.3-1-1.1-1.7s-1.4-.8-1.4-.3m35-.1c0 .7-1.8 1.3-4.2 1.4l-4.3.1 3.9.4c3.7.4 6.7-.9 5.3-2.4-.4-.3-.7-.1-.7.5m142 .1c0 1 1.9 2.5 2.5 2 .1-.2-.3-1-1.1-1.7s-1.4-.8-1.4-.3m35 0c0 .5-.8 1.2-1.7 1.4-1.4.4-1.2.5.5.6 1.3.1 2.2-.5 2.2-1.4 0-.8-.2-1.5-.5-1.5s-.5.4-.5.9m30-.1c0 .6-.8 1.3-1.7 1.5-1.6.4-1.6.5-.1.6 1.8.1 3.4-1.6 2.4-2.6-.3-.4-.6-.1-.6.5m-533.2.9c.7.3 1.6.2 1.9-.1.4-.3-.2-.6-1.3-.5-1.1 0-1.4.3-.6.6m11 0c.7.3 1.6.2 1.9-.1.4-.3-.2-.6-1.3-.5-1.1 0-1.4.3-.6.6m61.7.3-4 .7 3.7.2c2 0 4-.4 4.3-.9.3-.6.5-.9.3-.9-.2.1-2.1.5-4.3.9m15.4.3c.4.4 3.9.7 7.7.5l6.9-.3-7.7-.5c-4.2-.3-7.3-.1-6.9.3m167.9-.6c.7.3 1.6.2 1.9-.1.4-.3-.2-.6-1.3-.5-1.1 0-1.4.3-.6.6m12 0c.7.3 1.6.2 1.9-.1.4-.3-.2-.6-1.3-.5-1.1 0-1.4.3-.6.6m29.7.3c-1.6.7-1.7.9-.3.9.9.1 2-.4 2.3-.9.7-1.1.7-1.1-2 0m52.3-.3c.7.3 1.6.2 1.9-.1.4-.3-.2-.6-1.3-.5-1.1 0-1.4.3-.6.6m12 0c.7.3 1.6.2 1.9-.1.4-.3-.2-.6-1.3-.5-1.1 0-1.4.3-.6.6m43 0c.7.3 1.6.2 1.9-.1.4-.3-.2-.6-1.3-.5-1.1 0-1.4.3-.6.6m13 0c.7.3 1.6.2 1.9-.1.4-.3-.2-.6-1.3-.5-1.1 0-1.4.3-.6.6m17.1.6c.4.4 3.9.7 7.7.5l6.9-.3-7.7-.5c-4.2-.3-7.3-.1-6.9.3m22.1-.3c-.9.6-1 1-.3 1 .6 0 1.5-.5 1.8-1 .8-1.2.4-1.2-1.5 0m37.8.2c.6.6 1.8.8 2.8.6 1.4-.3 1.2-.5-.9-1-1.9-.3-2.5-.2-1.9.4m31 0c.5.5 1.6.8 2.3.6.8-.3.3-.7-1-1.1-1.7-.4-2.1-.3-1.3.5m-333 .5c1.8.2 4.5.2 6 0s0-.4-3.3-.4-4.5.2-2.7.4m69 0c.6.2 1.8.2 2.5 0 .6-.3.1-.5-1.3-.5s-1.9.2-1.2.5m148.5 0c.9.2 2.3.2 3 0 .6-.3-.1-.5-1.8-.5-1.6 0-2.2.2-1.2.5"/><g fill-opacity=".8" stroke-opacity=".8" stroke-width="0"><path d="M438.5 687.1c-7 3.5-13.6 11.7-13.4 16.6 0 1.2.3 1 .8-.7 1.5-4.7 4-8.8 7.3-11.5 4.2-3.5 7.1-4.7 13.8-5.5l5.5-.7-5-.1c-3.2-.1-6.5.6-9 1.9m41.9-.7c-.3.7-.3 3.5-.1 6.2l.3 4.9.2-5.8.2-5.7h3.3c3.2 0 3.8.6 11.2 11.7 9 13.6 11.2 16.3 13.6 16.3 2.5 0 2.9-2 2.9-15.6V686h2.9c2.9 0 3 .2 3.4 5.2l.3 5.3.2-5.8.2-5.8-3.7.3-3.8.3-.5 13.5c-.7 18.2-1.3 18.2-13.8-.3-9-13.2-9.4-13.7-12.8-13.7-2 0-3.7.6-4 1.4m49.2.2c-.9 2.3-.7 43.2.2 43.7.4.3.6-9.2.4-21-.2-15.2.1-21.9.9-22.9.7-.9.7-1.4.1-1.4-.5 0-1.3.7-1.6 1.6m5.7-1c1.5.5 1.7 2.3 1.7 18.4 0 21.2-.1 21.1 9.3 20.8l6.2-.2-6.2-.3c-3.4-.2-6.6-1-7.2-1.7s-1.2-8.4-1.3-19.2c-.3-17-.4-17.9-2.3-18.1-1.6-.1-1.6-.1-.2.3m28.7 1.1c0 1.4.2 1.5.9.5.4-.8 1.9-1.2 3.2-1 2.1.3 2.5 1 3 5.3l.6 5-.1-5.5-.1-5.5-3.7-.3c-3.1-.3-3.8 0-3.8 1.5m18.2 21c.3 19.1.5 22.7 1.8 23.1 1.2.4 1.3.2.3-.9-1-.9-1.3-6.9-1.3-22.5 0-16.1.3-21.4 1.3-21.7.7-.3.5-.6-.6-.6-1.6-.1-1.7 1.4-1.5 22.6m6.1-22c.9.2 4 3.8 6.8 7.9 2.7 4.1 5.2 7.4 5.4 7.4s-1.9-3.6-4.7-8c-3.8-6.1-5.6-8-7.2-7.9-1.7.1-1.8.2-.3.6m25.4-.1c-.4.4-.7 6.5-.7 13.6 0 10.6-.3 13-1.5 13.4-.8.4-2.3 0-3.3-.7-1.6-1.2-1.5-1.1.1.6 1.4 1.5 2.1 1.7 3.5.9 1.4-1 1.7-3.1 2-14.3l.3-13.1h6.9l.3 21.2.3 21.3-.1-21.5v-21.5l-3.5-.3c-2-.2-3.9 0-4.3.4m19 0c-.9 1-.9 45.4.1 45.4.4 0 .6-10.1.4-22.5l-.3-22.5h11.6c11.5 0 11.6 0 11.3 2.2-.3 2.1-1 2.4-7.1 2.8-7.2.5-8.7 1.5-8.7 6 0 2.7 1.6 5 3.5 5 .5 0 .2-.5-.7-1.1-2.1-1.2-2.4-5.9-.6-7.7.7-.7 3.7-1.2 6.8-1.2 6.6 0 8.3-.9 7.8-4.1-.3-2.4-.5-2.4-11.9-2.7-6.3-.1-11.8.1-12.2.4m62.8 1.3c-13.5 6.3-17.8 23.7-8.8 35.8 1.3 1.8 3.3 3.8 4.4 4.4s.3-.7-1.8-2.8c-8.8-8.8-8.4-24.7 1-33 4.7-4.1 9.7-5.7 16.6-5 3.4.3 4.8.2 3.6-.3-3.5-1.5-10.9-1-15 .9m38.5-.2c0 1.3.3 1.4.8.6s4.3-1.3 10.2-1.6l9.5-.3-10.2-.2c-9.2-.2-10.3 0-10.3 1.5m65.5-.7c7 .8 9.6 1.9 15 6.9l4 3.6-3.5-3.9c-4.6-5-10.2-7.6-16.5-7.4l-5 .1zm51.8-.3c1.5.2 3.9.2 5.5 0 1.5-.2.2-.4-2.8-.4s-4.3.2-2.7.4m25.1.6c-.2.7-.3 10.9-.2 22.6.2 16.4.6 21.5 1.6 21.7.7.1.8 0 .2-.3s-1-8.4-1-22.4V686h11.6c11.4 0 11.5 0 11.2 2.2-.3 2-1 2.4-6.8 2.9l-6.5.6 6.4-.1c6.7-.1 9.1-1.6 7.8-5-.5-1.3-2.4-1.6-12.2-1.6-8.4 0-11.7.3-12.1 1.3m34.6-.6c0 .5 4.1.7 9.1.5 10.9-.4 12.8 0 17 3.5 2.6 2.2 2.9 2.3 1.9.6-2.5-3.9-7.3-5.3-18-5.3-5.5 0-10 .3-10 .7m41 .7c0 .8.4 1.8 1 2.1.6.4.7-.1.3-1.1-.6-1.5-.1-1.6 3.7-1.1 2.9.4 3.9.2 2.9-.4-2.3-1.5-7.9-1.1-7.9.5m25.6 5.6c-2.5 3.8-5.3 7-6.2 7-.8 0-2.7-1.2-4.1-2.8-2.2-2.3-2.4-2.4-1.4-.4.7 1.3 2.3 2.8 3.6 3.4 3.1 1.4 4.2.5 9.2-7.3 3.4-5.2 4.2-5.9 7.1-5.9 3.7 0 4 1.1 1.4 4.8s-3.8 6-2.5 4.7c2.3-2.2 6.2-8.9 5.7-9.7-.3-.4-2.2-.8-4.3-.8-3.6 0-4.1.4-8.5 7M455 687.1c5 2 10.2 6.4 12.3 10.3 2.2 4.3 2.8 12.6 1.4 18.1-.6 2.7-.6 2.8.5 1 .7-1.1 1.3-4.9 1.3-8.5 0-5.1-.6-7.5-2.5-11-2.6-4.6-10.8-11.1-13.9-10.9-1 0-.6.4.9 1m302.6.8c4.2 2.6 4.8 3.6 5.5 10.1l.6 5.5.2-5.4c.1-4.8-.2-5.6-3.3-8.7-1.9-1.9-4-3.4-4.7-3.4-.8 0 0 .9 1.7 1.9m27.8 1.3c-2.7 1.8-5.7 4.8-6.7 6.5-2.6 4.6-1.5 4.1 1.6-.6 1.6-2.4 4.5-4.8 7.8-6.5 2.9-1.4 4.6-2.6 3.7-2.6s-3.7 1.5-6.4 3.2m57.1-1.5c-6.6 3.5-13.6 11.4-13.5 15.2.1.9.8 0 1.6-1.9 2.2-5 7.1-9.9 12.9-12.6 2.8-1.3 4.3-2.4 3.5-2.4-.8.1-2.8.8-4.5 1.7m20.3-.2c2.8 1.2 3.2 1.7 2.3 3.4-.6 1.1-2.1 2.2-3.3 2.4l-2.3.4 2.2.2c1.2 0 2.9-.9 3.8-2.2 1.5-2.1 1.4-2.3-.6-4-1.2-.9-2.9-1.7-3.8-1.7-.9.1-.1.7 1.7 1.5m-149.7-.2c.2.2 1.8 1.1 3.4 2.1l3 1.7-2.4-2c-1.3-1.2-2.8-2.1-3.4-2.1q-.9 0-.6.3m29.5 4.3c-2.9 2.8-1.7 15.4 1.5 15.4.6 0 .3-.7-.5-1.6-2-1.9-2.2-11.7-.3-13.2.6-.6 2.6-1.2 4.2-1.5l3-.4-3.2-.2c-1.7 0-3.9.6-4.7 1.5m176.8.9c-1.3 2.1-1.4 3.3-.5 7.2 1 4.7 1 4.7.6.6-.7-5.9.8-9.3 4-9.3 3.5 0 8.2 2.6 8.8 4.7.4 1.7.5 1.7.6 0 .1-2.2-5.5-5.7-9.1-5.7-1.8 0-3.3.8-4.4 2.5m40.7 6.7c6.4 9.8 8 11.9 5.9 7.8-1.8-3.5-11-17-11.5-17-.3 0 2.3 4.2 5.6 9.2m-206.6-5.7c2.6 2.5 3.4 7.8 1.5 9-.5.3-1 1.1-1 1.8 0 .6.7.2 1.5-.9.8-1 1.5-3.1 1.5-4.5 0-2.6-3.3-7.9-5-7.9-.5 0 .2 1.1 1.5 2.5"/><path d="M440.4 693.9c-1.8 1.1-3.5 2.5-3.9 3.2-.4.6.7.1 2.4-1.2 1.9-1.4 5.3-2.6 8.4-3l5.2-.6-4.5-.2c-2.9 0-5.6.6-7.6 1.8m255.6.7c-1.7 1.5-3.7 3.9-4.5 5.5-2 3.8-1.9 13 .1 15.5 1.5 1.8 1.5 1.8.5-.3-1.5-3.1-1.3-11.9.3-15.1 1.9-3.6 4.8-6.1 8.2-7.2 2.4-.7 2.5-.8.7-.9-1.2-.1-3.5 1.1-5.3 2.5m12-1.7c1.9.4 4.5 1.2 5.6 1.9 1.7.9 2.5.8 4-.4 1.8-1.5 1.8-1.5-.1-.5-1.4.6-2.8.5-4.5-.5-1.4-.7-3.8-1.3-5.5-1.2-2.9 0-2.9 0 .5.7m88.3-.2c1.5.2 3.7.2 5 0 1.2-.2 0-.4-2.8-.4-2.7 0-3.8.2-2.2.4m56.5 0c1.2.2 3.2.2 4.5 0 1.2-.2.2-.4-2.3-.4s-3.5.2-2.2.4m-398.3 1.4c1.1.6 3.1 2.3 4.3 3.8 2 2.2 2.2 2.2 1.3.4-1.2-2.4-4.9-5.3-6.6-5.3-.5 0-.1.5 1 1.1m334.5 1c-1.7 1.3-1.8 1.7-.5 1 3.3-1.7 5.1-3.1 4-3.1-.5 0-2.1 1-3.5 2.1m17.8.5c1.8 1.6 3.7 4.2 4.2 5.9.6 2.2.8 2.5.9.9.1-2.5-3.1-7-6.2-8.5-1.3-.7-.9 0 1.1 1.7m37.2-.4c-4.6 3.2-7 6.7-7.5 11.3-.5 3.9-.5 3.9.8-.8 1.7-5.7 3.9-8.4 9.2-10.8 2.2-1 3.3-1.9 2.4-1.9s-3.1 1-4.9 2.2m96.3 2.8c0 3 .2 4.3.4 2.7.2-1.5.2-3.9 0-5.5-.2-1.5-.4-.2-.4 2.8m-370.1 15.2c-.1 12.2-.5 16.8-1.4 17.1q-1.5.6 0 .6c2.1.1 2.3-1.7 1.9-18.4l-.3-16zm411.7-14.5c-1.3 1.6-1.2 1.7.4.4s2.1-2.1 1.3-2.1c-.2 0-1 .8-1.7 1.7M785 700.1c-.7 1.1-1 2.3-.7 2.5.2.2.9-.7 1.5-2.1 1.4-3 .7-3.3-.8-.4m-350.5 0c-.4.6-.5 1.2-.2 1.5.2.3.7-.2 1-1.1.7-1.7.1-2-.8-.4m129.9 9.4c0 6 .1 8.4.3 5.2s.2-8.1 0-11-.3-.3-.3 5.8m367.1-7.3c-.7 1.5-2.5 2.7-5.5 3.6l-4.5 1.2 3.9-.5c4.1-.4 8.1-3.4 7.5-5.4-.2-.6-.9-.1-1.4 1.1m-283.7-.5c1.2.2 3.2.2 4.5 0 1.2-.2.2-.4-2.3-.4s-3.5.2-2.2.4m246.2 0c2.4.2 4.8 1 5.3 1.6.6.8.7.7.4-.3-.2-1.1-1.8-1.5-5.3-1.6l-4.9-.1zm-414.5 14.2c0 11.9.3 14.5 1.5 14.9s1.3.2.3-1c-.8-.9-1.4-6.2-1.6-14.9l-.3-13.4zM487 704c-.6 1.2-.9 4.2-.7 6.8l.3 4.7.2-5.1c.3-9.4 4.2-9.5 9.8-.3 2 3.2 3.9 5.9 4.1 5.9.9 0-4.3-8.4-6.9-11.1-3.1-3.4-5.3-3.7-6.8-.9m102.7-1.3c-.4.3-.7 6.6-.7 13.9 0 8-.4 13.4-1 13.7s-.5.4.2.3c1-.2 1.4-3.8 1.6-13.9.3-13.5.3-13.7 2.5-13.7 1.3 0 2.9.6 3.7 1.2 1.2 1.1 1.2 1 .1-.5-1.3-1.7-5.1-2.3-6.4-1m65.9 1c.3 1.1-.2 2.7-1.1 3.7-.9.9-1.2 1.6-.5 1.6 1.8 0 3.5-4.9 2.2-6.2-.8-.8-1-.6-.6.9m164.6.3c0 1.4.2 1.9.5 1.2.2-.6.2-1.8 0-2.5-.3-.6-.5-.1-.5 1.3m-386.9 4c0 3 .2 4.3.4 2.7.2-1.5.2-3.9 0-5.5-.2-1.5-.4-.2-.4 2.8m341.9 0c-.2 5.3 1.8 11.2 5 15.1 2.3 2.8 9 6.9 11.2 6.9 1.4-.1.7-.6-1.8-1.5-8-2.8-12.6-9.4-13.6-19.5l-.7-6.5zm202.3-3c-1 1.1-1.6 2.2-1.4 2.4s1.2-.7 2.2-2c2.2-2.9 1.7-3.2-.8-.4m-217 1.6c-.9 1.5-1.2 2.3-.6 2 1.1-.7 3.5-4.6 2.8-4.6-.3 0-1.2 1.2-2.2 2.6m22.8 1.4c0 2.5.2 3.5.4 2.2.2-1.2.2-3.2 0-4.5-.2-1.2-.4-.2-.4 2.3m152 .3c-4.9 4.9-4.9 4.9 3.5 14.4 2.9 3.4 5.1 6.7 4.7 7.3-.3.5-.1 1 .4 1 2.1 0 1-2.3-3.7-7.9-2.7-3.1-5.7-6.8-6.6-8.2-1.7-2.7-1.6-2.7 1.4-4.9 1.6-1.2 3.5-3 4-4.1 1.4-2.6 1.2-2.4-3.7 2.4m-330.8-.9c1 1.4 1.9 2.6 2.2 2.6.7 0-1.7-3.9-2.8-4.6-.6-.3-.3.5.6 2m207.8 1.1c0 2.2.2 3 .4 1.7.2-1.2.2-3 0-4-.3-.9-.5.1-.4 2.3m-350.1.5c0 1.9.2 2.7.5 1.7.2-.9.2-2.5 0-3.5-.3-.9-.5-.1-.5 1.8"/><path d="M598.9 709.5c4.2 7.6 13.6 20.9 15.1 21.3.9.3.6-.3-.6-1.4-1.2-1-5-6.4-8.5-11.9-6.7-10.7-9.6-14.6-6-8m107.1-2.4c0 .5.5.7 1 .4.6-.3 1-.8 1-1.1 0-.2-.4-.4-1-.4-.5 0-1 .5-1 1.1m12.7-.4c3.8.3 5.3.9 5.7 2.1.3 1.2.4 1.2.3-.3-.2-1.7-1-2-5.7-2.1l-5.5-.1zm30.1 0c.7.3 1.6.2 1.9-.1.4-.3-.2-.6-1.3-.5-1.1 0-1.4.3-.6.6m149.4.9c-.7.8-.8 1.4-.3 1.4 1 0 2.5-1.9 2-2.5-.2-.1-1 .3-1.7 1.1m-9.4 1.1c.7.3 1.6.2 1.9-.1.4-.3-.2-.6-1.3-.5-1.1 0-1.4.3-.6.6m-248.2 1.9c-1 2.5-.7 10.4.4 12.5.9 1.6 2.2 1.9 7.7 1.9 5.1 0 6.9.4 8 1.7 1.3 1.6 1.3 1.6.3-.5-1-2-1.8-2.2-7.9-2.2-5.4 0-7-.4-7.5-1.6-1-2.7-.6-11 .6-12.2.8-.8.8-1.2.1-1.2-.6 0-1.4.7-1.7 1.6m115.1.2c-2 2.1-1.3 3.5 6.1 11.9 2.9 3.4 5.1 6.7 4.7 7.3-.3.5-.1 1 .4 1 2.2 0 1-2.4-4.2-8.4-7.3-8.3-8-9.7-6-11.8.9-1 1.4-1.8 1.1-1.8s-1.2.8-2.1 1.8m219.4-.2c0 1.1.3 1.4.6.6.3-.7.2-1.6-.1-1.9-.3-.4-.6.2-.5 1.3m-155.5 2.5c-.3 1.8-.4 3.4-.2 3.6.2.3.7-1 1.1-2.7s.5-3.4.2-3.6c-.2-.3-.7 1-1.1 2.7m147.8 6.8c.1 8.4.4 10.5 1.6 10.8 1.1.3 1.2.2.3-.4-.8-.6-1.4-4.5-1.6-10.8l-.3-10zm-542.3-7.1c-.2 4.3 5 12.2 9.4 14.4 1.1.5.5-.2-1.3-1.7-3.5-2.9-6.1-7.2-7.3-12-.6-2.5-.7-2.6-.8-.7m412-.6c-.1 1 1.1 3 2.7 4.6 1.5 1.5 1.9 1.9 1 .7-.9-1.1-2.1-3.1-2.7-4.5-.7-1.7-1-2-1-.8m-126.8.5c.9.2 2.5.2 3.5 0 .9-.3.1-.5-1.8-.5s-2.7.2-1.7.5m118.8.3c0 .8.4 2.2.9 3 1.2 1.8 1.2.2 0-2.5-.6-1.3-.9-1.5-.9-.5m54.2 3.5c0 2.7.2 3.8.4 2.2.2-1.5.2-3.7 0-5-.2-1.2-.4 0-.4 2.8m-365.1 4.7-.2 8.8h-3.4c-2.8 0-4.1-.8-6.7-3.8-3.3-3.8-3-2.8.5 2 1.6 2.2 2.8 2.8 5.8 2.8 2.3 0 4.1-.5 4.4-1.3s.3-4.9.1-9.3l-.3-7.9zm205.9-6.5c0 1.2-.4 3-.7 4-.5 1.7-.5 1.7.6 0 .6-1 .9-2.8.7-4-.4-2.2-.4-2.2-.6 0m18.1-.5c-1.1 1.4-2.1 17.2-1 16 .4-.4.8-4.1 1-8.2.4-10.5 1.9-10.4 10.4.4 3.8 4.8 7.4 8.5 8.3 8.5 1.3-.1 1.4-.2.1-.6-.8-.2-4.4-4.1-8.1-8.6-6.6-8.3-8.7-9.8-10.7-7.5m177 0c-.7.7-1.2 4.1-1.2 8.4 0 4-.5 7.5-1 7.7-.6.3-.5.4.2.3.8-.2 1.4-2.3 1.6-6.2.4-11.3 1.4-12.4 6.6-7.7 2.8 2.6 2.9 2.6 1.1.3-3.4-4.3-5.1-5-7.3-2.8m-203.1 1.4c0 1.1.3 1.4.6.6.3-.7.2-1.6-.1-1.9-.3-.4-.6.2-.5 1.3m67.9-.7c0 .6.4 1.3 1 1.6s.7-.1.4-.9c-.7-1.8-1.4-2.1-1.4-.7m26.6.8c-.6 1.4-.5 1.5.5.6.7-.7 1-1.5.7-1.8s-.9.2-1.2 1.2m-375.7 1.1c.5 1 1.8 2.5 2.7 3.3 1.1.9.9.2-.6-1.9-2.6-3.5-3.6-4.2-2.1-1.4m67.1 2.1c.5 1.1 1.5 2.3 2.1 2.7.6.3.3-.5-.6-2-2-3-3-3.5-1.5-.7m473.2 3.6c-.1 3.4-.7 6.6-1.4 7.3-.9.9-.9 1.2 0 1.2 1.6 0 2.4-3.7 1.9-9.6-.3-4.8-.3-4.8-.5 1.1M693 718.4c0 .2.8 1 1.8 1.7 1.5 1.3 1.6 1.2.3-.4s-2.1-2.1-2.1-1.3m19.7 2.1c-1.5 1.4-2.4 2.5-1.9 2.5s1.9-1.1 3.2-2.5c3-3.2 2.3-3.2-1.3 0m95.2-.8c-1.3 1.6-1.2 1.7.4.4s2.1-2.1 1.3-2.1c-.2 0-1 .8-1.7 1.7m7.9 2.4c-1.5 2.1-2.6 3.9-2.3 3.9.7 0 5.8-7 5.4-7.4-.2-.2-1.6 1.4-3.1 3.5m16-2.6c2.1 4.2 11.1 10.6 14.7 10.4 1.5-.1 1.3-.3-.7-.9-4.2-1.3-9.5-4.8-12.4-8.3-1.4-1.8-2.1-2.3-1.6-1.2m-41.4 1.9c1.1.9 2.4 1.6 3 1.6 1.2 0 .7-.5-2.4-1.9-2.4-1.1-2.4-1.1-.6.3m119.9 3.1c0 2.7.2 3.8.4 2.2.2-1.5.2-3.7 0-5-.2-1.2-.4 0-.4 2.8"/><path d="M931.6 724.7c3.3 4.4 6.4 7.1 6.8 6.1.1-.2-2.3-2.8-5.3-5.8l-5.4-5.5zm-467.2-1.6c-1 1.2-3.2 3-4.9 4-1.6 1.1-2.4 1.9-1.7 1.9 1.2 0 10.3-7.9 9.1-8-.3 0-1.4 1-2.5 2.1m233.3-1c.7.7 1.5 1 1.8.7s-.2-.9-1.2-1.2c-1.4-.6-1.5-.5-.6.5m21.3 2.7c-2.5 2.6-2.8 3.2-1.1 2.1 2.1-1.3 6.1-6 5-5.8-.2 0-2 1.7-3.9 3.7m85-2.8c-.9.6-1 1-.3 1 .6 0 1.5-.5 1.8-1 .8-1.2.4-1.2-1.5 0m-70.7 3.5c0 2.2.2 3 .4 1.7.2-1.2.2-3 0-4-.3-.9-.5.1-.4 2.3m126.5-2.8c.7.3 1.6.2 1.9-.1.4-.3-.2-.6-1.3-.5-1.1 0-1.4.3-.6.6m5.2 1.1c1.4 2.8-.1 5.1-3.4 5.3-1.8.1-1.8.2-.3.6 1.7.4 5.7-2.1 5.7-3.7 0-.3-.7-1.5-1.6-2.6-1.4-1.8-1.5-1.8-.4.4m19.9-.6c.9 1.3 3.1 1.8 7.9 2 6 .3 6.7.5 7 2.5.3 2.3-.3 2.6-6.8 3.6-2 .3-1.8.5.8.6 4.2.1 7.2-1.4 7.2-3.7 0-3.1-2.2-4.2-8.5-4.2-3.5 0-6.7-.5-7.5-1.3-1.2-1-1.2-.9-.1.5m-438.1.5c.6.2 1.8.2 2.5 0 .6-.3.1-.5-1.3-.5s-1.9.2-1.2.5m39.3 2.5c0 2-.7 3.9-1.3 4.1q-1.5.6 0 .6c1.7.1 2.4-2.1 1.9-5.6-.3-2.4-.4-2.3-.6.9m77-1c-.1 3.2.8 5.8 2.1 5.8.7 0 .7-.4 0-1.3-.6-.6-1.2-2.6-1.5-4.2-.4-2.9-.4-2.9-.6-.3m139.7-1.5c1.2.2 3.2.2 4.5 0 1.2-.2.2-.4-2.3-.4s-3.5.2-2.2.4m95 0c.7.3 1.6.2 1.9-.1.4-.3-.2-.6-1.3-.5-1.1 0-1.4.3-.6.6m-244.4 2.7c.9 2.8-1.2 4.6-5.8 4.7-3.2.2-3.5.3-1.2.6 6.1.9 9.9-1.9 7.5-5.5-.9-1.5-1-1.5-.5.2m141.4 2.8c.6.6 1.8.8 2.8.6 1.4-.3 1.2-.5-.9-1-1.9-.3-2.5-.2-1.9.4m16.7-.2c-1.3.6-1.5.9-.5.9.8 0 2.2-.4 3-.9 1.8-1.2.2-1.2-2.5 0m94 0c-1.3.6-1.5.9-.5.9.8 0 2.2-.4 3-.9 1.8-1.2.2-1.2-2.5 0m-365.7.7c.6.2 1.8.2 2.5 0 .6-.3.1-.5-1.3-.5s-1.9.2-1.2.5m14 0c.7.3 1.6.2 1.9-.1.4-.3-.2-.6-1.3-.5-1.1 0-1.4.3-.6.6m201.7.3c-.3.5-.1 1 .4 1 .6 0 1.1-.5 1.1-1 0-.6-.2-1-.4-1-.3 0-.8.4-1.1 1m-209.7.7c1.2.2 3.2.2 4.5 0 1.2-.2.2-.4-2.3-.4s-3.5.2-2.2.4m90.5 0c.9.2 2.3.2 3 0 .6-.3-.1-.5-1.8-.5-1.6 0-2.2.2-1.2.5m166 0c1.5.2 3.7.2 5 0 1.2-.2 0-.4-2.8-.4-2.7 0-3.8.2-2.2.4m32.7.3c.8.5 2 1 2.5 1 .6 0 .3-.5-.5-1s-1.9-1-2.5-1c-.5 0-.3.5.5 1m61.3-.3c1.5.2 3.7.2 5 0 1.2-.2 0-.4-2.8-.4-2.7 0-3.8.2-2.2.4m55 0c1.5.2 3.9.2 5.5 0 1.5-.2.2-.4-2.8-.4s-4.3.2-2.7.4m32.5 0c.7.3 1.6.2 1.9-.1.4-.3-.2-.6-1.3-.5-1.1 0-1.4.3-.6.6m28.2.3c.8.5 2 1 2.5 1 .6 0 .3-.5-.5-1s-1.9-1-2.5-1c-.5 0-.3.5.5 1m-266.2.7c1.8.2 4.5.2 6 0s0-.4-3.3-.4-4.5.2-2.7.4"/></g><path fill-opacity=".9" d="M531.1 686.3c-.8 1.1-1.1 7.5-.9 22.8l.3 21.3 10.6.3c11.1.3 13.7-.5 12.3-4.1-.5-1.2-2-1.6-6.9-1.6-9.6 0-9.5.2-9.5-21.1 0-10.2-.4-17.9-.9-17.9s-1.6-.2-2.4-.5c-.7-.3-1.9 0-2.6.8m3.9 15.2c0 6.3-.4 10.5-1 10.5s-1-4.2-1-10.5.4-10.5 1-10.5 1 4.2 1 10.5m49.3-15.8c-1 .3-1.3 5.7-1.3 21.8 0 22.2.4 24.4 4.3 22.9 1.4-.5 1.7-2.8 1.9-14.2l.3-13.7h2.9c2.7 0 3.7 1.2 11.3 13 8.9 14.1 10.9 16.1 14.8 15.1l2.5-.6v-44h-7v12.8c0 12.7-.6 15.2-3.6 15.2-.7 0-5.6-6.3-10.9-14s-10-14-10.5-14c-.4 0-1.4-.2-2.2-.4-.7-.3-1.9-.2-2.5.1m4.4 5.5c1.3 1.2 2.3 2.9 2.3 3.9s.6 2.1 1.3 2.6c.8.5.2.9-1.8 1.3-3.8.7-5.4-1.2-5.5-6.3 0-4.3.5-4.5 3.7-1.5m30 15c-.2 3.5-.3.9-.3-5.7s.1-9.4.3-6.3c.2 3.2.2 8.6 0 12m-.9 12c.7.7 1.2 2.9 1.2 5.1v3.9l-2.9-2.4c-1.7-1.3-3-3-3-3.9-.1-.8-.6-2-1.3-2.7-.9-.9-.5-1.2 1.8-1.2 1.7 0 3.5.5 4.2 1.2M438.6 688c-8.7 4.4-13 11.2-13 20.6.1 11.6 7.5 19.8 18.9 21 12.2 1.2 21.1-4.1 24.1-14.4 3.6-12.4-1.9-23.6-13.9-28.1-4.4-1.7-11.8-1.2-16.1.9m15.9 5.4c7 3 10.4 14.1 6.6 21.9-2.6 5.3-7.1 8.1-13.2 8.1-8.9 0-14.9-6.2-14.9-15.4 0-11.9 10.6-19.1 21.5-14.6m-23.8 17.8c-.2 1.8-.4.4-.4-3.2s.2-5 .4-3.3c.2 1.8.2 4.8 0 6.5m35.3-7.7c0 .8-.4 1.5-1 1.5-.5 0-1-.7-1-1.5s.5-1.5 1-1.5c.6 0 1 .7 1 1.5m14.7-9.3c-1.2 15.3-.8 34.4.7 35.7 4 3.3 6.1-3.9 5-17.3-.5-5.5-.2-7.5 1-9.1 1.4-1.8 1.7-1.9 4.2-.5 1.4.8 5.2 5.7 8.3 10.8 8.5 13.9 10.6 16.2 14.5 16.2h3.3l.7-13.8c.4-7.7.4-17.6 0-22-.7-8.2-.7-8.2-3.5-8.2H512v12.4c0 13.6-.4 15.6-2.9 15.6-2.4 0-4.6-2.7-13.6-16.3-7.3-10.9-8-11.7-11-11.7h-3.2zm6.3-1.7c0 .7 1.1 2.4 2.5 3.9l2.4 2.6h-2.7c-1.6 0-3.3.5-4 1.2-.9.9-1.2-.2-1.2-5.1 0-5.5.2-6.2 1.5-5.1.8.7 1.5 1.8 1.5 2.5m29.7 15.2c-.2 1.6-.4.3-.4-2.7s.2-4.3.4-2.8c.2 1.6.2 4 0 5.5m-1.7 14.4c0 4.5-.2 5-1.5 3.9-.8-.7-1.5-1.7-1.5-2.2 0-.6-.9-2.3-2.1-3.9l-2-2.9h7.1zm49.8-34.9c-.9 2.8-.2 41.8.8 42.8.6.6 1.8.8 2.7.4 1.5-.5 1.7-2.7 1.9-17 .4-29.9.7-26.9-2.3-27.2-1.5-.2-2.8.3-3.1 1m68.4 21 .3 22.3 10.6.3c11.1.3 13.7-.6 12.3-4.2-.5-1.3-2.1-1.6-7.5-1.6-7.9 0-8.9-.9-8.9-8.4 0-7.1.4-7.6 7-7.6 6.2 0 9.4-1.8 8.8-4.9-.3-1.2-1.8-1.7-6.8-1.9-7.3-.3-9-1.3-9-5.1 0-4.6 1.4-5.6 8.7-6.1 6.1-.4 6.8-.7 7.1-2.8.3-2.2.2-2.2-11.2-2.2H633zm4-4.4c.9 1.8.9 2.8 0 4.2-1.6 2.6-1.6 16.2 0 17.8.9.9.8 1.2-.5 1.2-1.5 0-1.7-1.7-1.5-19.3.1-10.5.3-16.3.5-12.7s.9 7.5 1.5 8.8m58.3-15.9c-4.9 2.2-9.9 7.7-11.5 12.6-1.7 5-.9 14.2 1.6 19.1 3 5.6 8.8 9.4 15.7 10.1 11.7 1.2 20.5-4 22.6-13.5 1.7-8.1 1.1-8.8-7.7-9.6-5.9-.5-7.9-.3-9 .8-2.5 2.4-.7 4.6 3.6 4.6 6.7 0 7.9 4.1 2.7 9-3.3 3.1-10.1 3.8-14.9 1.5-5.5-2.6-8.6-7.8-8.6-14.3 0-6.1 1.7-9.9 6-13.6 2.6-2.1 4.2-2.6 8.6-2.6 3 0 6.8.7 8.3 1.5 2.5 1.2 3.1 1.2 4.7 0 1.8-1.5 1.8-1.6-.4-3.5-5-4.2-15-5.2-21.7-2.1m-7.8 23.8c-.2 1.6-.4.3-.4-2.7s.2-4.3.4-2.8c.2 1.6.2 4 0 5.5m33.3.8c0 .8-.4 1.5-1 1.5-.5 0-1-.7-1-1.5s.5-1.5 1-1.5c.6 0 1 .7 1 1.5m-13.7 14.2c-.7.2-1.9.2-2.5 0-.7-.3-.2-.5 1.2-.5s1.9.2 1.3.5m27.3-39.1c-.3.9-.6 10.7-.6 22V730l2.4.6c3.9.9 4.6-.2 4.6-8 0-7.6 1.4-10.4 4.4-9.3.8.3 4.3 4.2 7.7 8.6 4.5 5.5 7.3 8.2 9.2 8.6 5.5 1.3 5.4-1-.5-7.7-8.4-9.7-8.4-9.6-3.2-14.5 4.1-4 4.4-4.6 4.4-9.6 0-9.8-4.2-12.7-18.3-12.7-7.7 0-9.6.3-10.1 1.6m20.1 5.9c5.3 6.1.8 13.5-8.1 13.5-4.4 0-5.6-2-5.6-8.9 0-6.5 1.9-8.5 7.4-7.8 2.7.4 4.9 1.5 6.3 3.2m-17 24.7c-.1 5.1-.3 1-.3-9.2s.2-14.3.3-9.3c.2 5.1.2 13.5 0 18.5m50.5-29.6c-7.2 3.6-11.5 9.8-12 17.7-1.1 14.5 9.5 24.7 24.3 23.5 10.2-.9 16.4-6.1 19.1-16 5-18.8-13.9-33.9-31.4-25.2m17.5 5.4c5.1 3.1 6.7 6.4 6.7 13.9.1 7.2-1.4 10.6-6.2 13.7-3.7 2.4-12.1 2.2-16.4-.4-4.4-2.8-5.9-5.4-6.5-11.6-1.2-12.8 11.9-22 22.4-15.6m10.3 9c0 .5-.2 1-.4 1-.3 0-.8-.5-1.1-1-.3-.6-.1-1 .4-1 .6 0 1.1.4 1.1 1m-35.3 4.2c-.3.7-.5.2-.5-1.2s.2-1.9.5-1.3c.2.7.2 1.9 0 2.5m36.5 1c-.9.9-1.2.7-1.2-1.2s.3-2.1 1.2-1.2.9 1.5 0 2.4m-14.9 18.5c-.7.2-1.9.2-2.5 0-.7-.3-.2-.5 1.2-.5s1.9.2 1.3.5m41.2-38.3c-5.9 2.7-11.8 8.8-13.5 14.1-2.5 7.6.8 16.8 7.9 22.2 5.4 4.2 11 5.6 19 5 7.1-.6 10-2.4 8.3-5.3-.9-1.6-2.1-1.8-8.5-1.5-6 .2-8.3-.1-11.5-1.8-5-2.5-7.8-6-8.6-10.7-2.1-10.7 8.8-19.6 22-17.9 4.7.6 5.4.4 6.4-1.5 1-1.8.7-2.2-2.4-3.5-5.3-2.2-13.3-1.9-19.1.9m14.3 1.3c-1 .2-2.6.2-3.5 0-1-.3-.2-.5 1.7-.5s2.7.2 1.8.5m-25.1 21.5c-.3.7-.5.2-.5-1.2s.2-1.9.5-1.3c.2.7.2 1.9 0 2.5m23.6 15.5c-.7.2-1.9.2-2.5 0-.7-.3-.2-.5 1.2-.5s1.9.2 1.3.5m20.7-18.8c0 25.3-1.3 22.8 12 23 9.2.1 11.4-.6 10.8-3.5-.3-1.6-1.4-1.9-6.8-2.2-7.8-.3-10-2.2-10-8.6 0-6.1 1.8-8.1 7.2-7.9 5.7.3 8.5-.4 9.2-2.2 1.2-3.3-.4-4.5-6.4-4.5-3.2 0-6.5-.3-7.4-.6-2-.7-2.2-7.9-.3-9.1.6-.4 4.1-1 7.7-1.3 5.8-.4 6.5-.7 6.8-2.8.3-2.2.2-2.2-11.2-2.2H877zm6-2.9c0 1.6-.4 3-1 3-.5 0-1-1.4-1-3 0-1.7.5-3 1-3 .6 0 1 1.3 1 3m1.3 21.7c-.7.2-1.9.2-2.5 0-.7-.3-.2-.5 1.2-.5s1.9.2 1.3.5m27.4-40c-.4.3-.7 10.2-.7 21.9 0 18.7.2 21.3 1.6 21.8.9.4 2.5.4 3.5.1 1.6-.5 1.9-1.7 1.9-7.9 0-7.9 1.3-10.4 4.7-9.1 1 .4 4.5 4.1 7.8 8.3 6.1 7.8 10.4 10.7 12.7 8.4.8-.8-.2-2.7-4.4-7.4-8.4-9.7-8.4-9.6-3.2-14.5 4.2-4.1 4.4-4.5 4.4-10.1 0-6.1-1.3-8.3-6.7-11.1-2.3-1.2-20.5-1.6-21.6-.4m18.1 5.3c3.1 1.9 3.7 3.5 3.2 8.5-.3 3-3.2 5.5-7.1 6.1-4.6.8-6.4-1.1-7.4-7.1-1.2-8.6 3.9-12 11.3-7.5m-15.1 26.2c-.1 5.1-.3 1-.3-9.2s.2-14.3.3-9.3c.2 5.1.2 13.5 0 18.5m38.3-31.5c0 .3 2.6 4.5 5.9 9.2 8.8 13 9.1 13.7 9.1 24.5 0 8.7.2 9.5 2 10.1 4 1.3 5-1 5-11.4 0-10.5-.3-9.7 8.3-22.5 3.1-4.7 5.7-9 5.7-9.6 0-.5-1.5-1-3.2-1-2.9 0-3.7.7-7.1 5.9-2.1 3.3-4.5 6.5-5.2 7.1-2.4 2-5.4.1-9.1-5.8-2-3.1-4.2-6-4.8-6.4-1.4-1-6.6-1-6.6-.1m20 19.5c0 1.2-.1 1.9-.3 1.7-.1-.2-.9-1.2-1.6-2.2-1.2-1.4-1.1-1.7.3-1.7 1 0 1.6.8 1.6 2.2"/><path fill="#BFBFBF" fill-opacity=".3" d="M574.3 690.5c0 3.3.2 4.5.4 2.7s.2-4.5 0-6-.4 0-.4 3.3m3.9-1c0 1.6.2 2.2.5 1.2.2-.9.2-2.3 0-3-.3-.6-.5.1-.5 1.8m344.4 4.4c-.4.5.3.7 1.4.4 2.3-.6 2.6-1.3.6-1.3-.8 0-1.7.4-2 .9m-396.5 7.7c0 1.1.3 1.4.6.6.3-.7.2-1.6-.1-1.9-.3-.4-.6.2-.5 1.3m397.7 2.1c.6.2 1.8.2 2.5 0 .6-.3.1-.5-1.3-.5s-1.9.2-1.2.5m40.4 18.8c0 1.6.2 2.2.5 1.2.2-.9.2-2.3 0-3-.3-.6-.5.1-.5 1.8m-407 5.5c0 1.4.2 1.9.5 1.2.2-.6.2-1.8 0-2.5-.3-.6-.5-.1-.5 1.3"/><path fill="#404040" fill-opacity=".7" d="M519.2 688c0 1.4.2 1.9.5 1.2.2-.6.2-1.8 0-2.5-.3-.6-.5-.1-.5 1.3m0 7c0 1.9.2 2.7.5 1.7.2-.9.2-2.5 0-3.5-.3-.9-.5-.1-.5 1.8m124.6-2.3c.7.3 1.6.2 1.9-.1.4-.3-.2-.6-1.3-.5-1.1 0-1.4.3-.6.6m245.5 0c1.5.2 3.9.2 5.5 0 1.5-.2.2-.4-2.8-.4s-4.3.2-2.7.4m-5.1 4.3c0 1.4.2 1.9.5 1.2.2-.6.2-1.8 0-2.5-.3-.6-.5-.1-.5 1.3m-355.9 6.5c0 3.8.2 5.3.4 3.2.2-2 .2-5.2 0-7-.2-1.7-.4-.1-.4 3.8m366.5-2.8c.7.3 1.6.2 1.9-.1.4-.3-.2-.6-1.3-.5-1.1 0-1.4.3-.6.6m28 5c.6.2 1.8.2 2.5 0 .6-.3.1-.5-1.3-.5s-1.9.2-1.2.5M519.2 713c0 1.9.2 2.7.5 1.7.2-.9.2-2.5 0-3.5-.3-.9-.5-.1-.5 1.8m-11.4-.3c.7.3 1.6.2 1.9-.1.4-.3-.2-.6-1.3-.5-1.1 0-1.4.3-.6.6m376.4 2.8c0 1.6.2 2.2.5 1.2.2-.9.2-2.3 0-3-.3-.6-.5.1-.5 1.8m-344.5 7.6c.7.7 1.5 1 1.8.7s-.2-.9-1.2-1.2c-1.4-.6-1.5-.5-.6.5m-20.5 3.9c0 1.4.2 1.9.5 1.2.2-.6.2-1.8 0-2.5-.3-.6-.5-.1-.5 1.3"/><path d="M484 695.1c0 4.9.3 6 1.2 5.1.7-.7 2.4-1.2 4-1.2h2.7l-2.4-2.6c-1.4-1.5-2.5-3.2-2.5-3.9s-.7-1.8-1.5-2.5c-1.3-1.1-1.5-.4-1.5 5.1m101-2.4c.1 5.1 1.7 7 5.5 6.3 2-.4 2.6-.8 1.8-1.3-.7-.5-1.3-1.6-1.3-2.6 0-1.7-3.9-6.1-5.3-6.1-.4 0-.7 1.7-.7 3.7m33.4 7.8c0 6.6.1 9.2.3 5.7.2-3.4.2-8.8 0-12-.2-3.1-.3-.3-.3 6.3m16.8 7.2c-.2 17.6 0 19.3 1.5 19.3 1.3 0 1.4-.3.5-1.2-1.6-1.6-1.6-15.2 0-17.8.9-1.4.9-2.4 0-4.2-.6-1.3-1.3-5.2-1.5-8.8s-.4 2.2-.5 12.7m219.1-18c.9.2 2.5.2 3.5 0 .9-.3.1-.5-1.8-.5s-2.7.2-1.7.5M533 701.5c0 6.3.4 10.5 1 10.5s1-4.2 1-10.5-.4-10.5-1-10.5-1 4.2-1 10.5m204.4 7.5c0 10.2.2 14.3.3 9.2.2-5 .2-13.4 0-18.5-.1-5-.3-.9-.3 9.3m177 0c0 10.2.2 14.3.3 9.2.2-5 .2-13.4 0-18.5-.1-5-.3-.9-.3 9.3m-398.1-4c0 3 .2 4.3.4 2.7.2-1.5.2-3.9 0-5.5-.2-1.5-.4-.2-.4 2.8m-86 3c0 3.6.2 5 .4 3.2.2-1.7.2-4.7 0-6.5-.2-1.7-.4-.3-.4 3.3m33.7-4.5c0 .8.5 1.5 1 1.5.6 0 1-.7 1-1.5s-.4-1.5-1-1.5c-.5 0-1 .7-1 1.5m350.5-.5c.3.5.8 1 1.1 1 .2 0 .4-.5.4-1 0-.6-.5-1-1.1-1-.5 0-.7.4-.4 1m66.5 2c0 1.6.5 3 1 3 .6 0 1-1.4 1-3 0-1.7-.4-3-1-3-.5 0-1 1.3-1 3m-193.7 4c0 3 .2 4.3.4 2.7.2-1.5.2-3.9 0-5.5-.2-1.5-.4-.2-.4 2.8m92.9-3c0 1.4.2 1.9.5 1.2.2-.6.2-1.8 0-2.5-.3-.6-.5-.1-.5 1.3m190.9-.3c.7 1 1.5 2 1.6 2.2.2.2.3-.5.3-1.7 0-1.4-.6-2.2-1.6-2.2-1.4 0-1.5.3-.3 1.7M816 707c0 1.9.3 2.1 1.2 1.2s.9-1.5 0-2.4-1.2-.7-1.2 1.2m16.2 3c0 1.4.2 1.9.5 1.2.2-.6.2-1.8 0-2.5-.3-.6-.5-.1-.5 1.3M719 712.5c0 .8.5 1.5 1 1.5.6 0 1-.7 1-1.5s-.4-1.5-1-1.5c-.5 0-1 .7-1 1.5m-209.1 7.4c1.2 1.6 2.1 3.3 2.1 3.9 0 .5.7 1.5 1.5 2.2 1.3 1.1 1.5.6 1.5-3.9V717h-7.1zm101.9-1.7c.7.7 1.2 1.9 1.3 2.7 0 .9 1.3 2.6 3 3.9l2.9 2.4v-3.9c0-4.7-1.4-6.3-5.4-6.3-2.3 0-2.7.3-1.8 1.2m93 8.5c.6.2 1.8.2 2.5 0 .6-.3.1-.5-1.3-.5s-1.9.2-1.2.5m95 0c.6.2 1.8.2 2.5 0 .6-.3.1-.5-1.3-.5s-1.9.2-1.2.5m54 0c.6.2 1.8.2 2.5 0 .6-.3.1-.5-1.3-.5s-1.9.2-1.2.5m28 0c.6.2 1.8.2 2.5 0 .6-.3.1-.5-1.3-.5s-1.9.2-1.2.5"/><path fill="gray" fill-opacity=".5" d="M921.5 693c-.3.6.1.7.9.4 1.8-.7 2.1-1.4.7-1.4-.6 0-1.3.4-1.6 1m-273.2.7c.9.2 2.5.2 3.5 0 .9-.3.1-.5-1.8-.5s-2.7.2-1.7.5m245 0c.9.2 2.5.2 3.5 0 .9-.3.1-.5-1.8-.5s-2.7.2-1.7.5m1.5 6c.7.3 1.6.2 1.9-.1.4-.3-.2-.6-1.3-.5-1.1 0-1.4.3-.6.6m-367.7 2.9c0 1.1.3 1.4.6.6.3-.7.2-1.6-.1-1.9-.3-.4-.6.2-.5 1.3"/><path fill="#BFBFBF" fill-opacity=".4" d="M526.2 705c0 1.4.2 1.9.5 1.2.2-.6.2-1.8 0-2.5-.3-.6-.5-.1-.5 1.3"/><path fill="#404040" fill-opacity=".8" d="M519.2 700.5c0 1.6.2 2.2.5 1.2.2-.9.2-2.3 0-3-.3-.6-.5.1-.5 1.8m0 7.5c0 1.4.2 1.9.5 1.2.2-.6.2-1.8 0-2.5-.3-.6-.5-.1-.5 1.3"/><path fill="#FFF" fill-opacity=".3" d="M893.8 698.7c.6.2 1.8.2 2.5 0 .6-.3.1-.5-1.3-.5s-1.9.2-1.2.5m-370.4 5.8c.1 2.2.5 3.1 1.4 2.8 1.6-.7 1.6-4.9-.1-5.6-1-.4-1.3.5-1.3 2.8"/><path fill="gray" fill-opacity=".6" d="M521.1 703.6c0 1.1.3 1.4.6.6.3-.7.2-1.6-.1-1.9-.3-.4-.6.2-.5 1.3"/><path fill="#404040" fill-opacity=".9" d="M519.1 704.6c0 1.1.3 1.4.6.6.3-.7.2-1.6-.1-1.9-.3-.4-.6.2-.5 1.3"/><path fill="gray" fill-opacity=".8" d="M520.1 704.6c0 1.1.3 1.4.6.6.3-.7.2-1.6-.1-1.9-.3-.4-.6.2-.5 1.3"/><path fill="#BFBFBF" fill-opacity=".5" d="M522.1 704.6c0 1.1.3 1.4.6.6.3-.7.2-1.6-.1-1.9-.3-.4-.6.2-.5 1.3"/><path fill="#FFF" fill-opacity=".4" d="M523.2 705c0 1.4.2 1.9.5 1.2.2-.6.2-1.8 0-2.5-.3-.6-.5-.1-.5 1.3"/></svg>